<svg width="20" height="35" viewBox="0 0 20 35" fill="none" xmlns="http://www.w3.org/2000/svg">
<g clip-path="url(#clip0_701_878)">
<path d="M19.1704 15.4323L4.4605 1.17136C3.4608 0.202179 1.86472 0.226915 0.895536 1.22661C-0.0736441 2.2263 -0.0489076 3.82239 0.950786 4.79157L15.6607 19.0525C16.6604 20.0217 18.2565 19.997 19.2257 18.9973C20.1949 17.9976 20.1701 16.4015 19.1704 15.4323Z" fill="#F2F2F2"/>
<path d="M0.950659 30.3864L15.6606 16.1255C16.6603 15.1563 18.2564 15.181 19.2256 16.1807C20.1947 17.1804 20.17 18.7765 19.1703 19.7457L4.46037 34.0066C3.46067 34.9758 1.86459 34.9511 0.89541 33.9514C-0.0737691 32.9517 -0.0490335 31.3556 0.950659 30.3864Z" fill="#F2F2F2"/>
</g>
<defs>
<clipPath id="clip0_701_878">
<rect width="20" height="35" fill="white"/>
</clipPath>
</defs>
</svg>
