<svg width="20" height="35" viewBox="0 0 20 35" fill="none" xmlns="http://www.w3.org/2000/svg">
<g clip-path="url(#clip0_701_875)">
<path d="M1.00632 15.3958L15.7163 1.13486C16.716 0.16568 18.312 0.190416 19.2812 1.19011C20.2504 2.1898 20.2257 3.78589 19.226 4.75507L4.51603 19.016C3.51634 19.9852 1.92025 19.9605 0.951074 18.9608C-0.018105 17.9611 0.00663053 16.365 1.00632 15.3958Z" fill="white"/>
<path d="M19.2261 30.3499L4.51616 16.089C3.51647 15.1198 1.92038 15.1445 0.9512 16.1442C-0.0179797 17.1439 0.0067563 18.74 1.00645 19.7092L15.7164 33.9701C16.7161 34.9393 18.3122 34.9146 19.2814 33.9149C20.2505 32.9152 20.2258 31.3191 19.2261 30.3499Z" fill="white"/>
</g>
<defs>
<clipPath id="clip0_701_875">
<rect width="20" height="35" fill="white"/>
</clipPath>
</defs>
</svg>
