<svg width="123" height="90" viewBox="0 0 123 90" fill="none" xmlns="http://www.w3.org/2000/svg">
<g clip-path="url(#clip0_401_212)">
<path d="M33.6091 40.0595C32.7344 40.0595 32.0357 39.8889 31.5131 39.5475C30.9904 39.2062 30.6171 38.7209 30.3931 38.0915C30.1691 37.4515 30.0571 36.7049 30.0571 35.8515V30.9395C30.0571 30.0862 30.1691 29.3555 30.3931 28.7475C30.6277 28.1289 31.0011 27.6595 31.5131 27.3395C32.0357 27.0089 32.7344 26.8435 33.6091 26.8435C34.4837 26.8435 35.1771 27.0089 35.6891 27.3395C36.2011 27.6702 36.5691 28.1395 36.7931 28.7475C37.0277 29.3555 37.1451 30.0862 37.1451 30.9395V35.8675C37.1451 36.7102 37.0277 37.4462 36.7931 38.0755C36.5691 38.7049 36.2011 39.1955 35.6891 39.5475C35.1771 39.8889 34.4837 40.0595 33.6091 40.0595ZM33.6091 38.6355C34.0891 38.6355 34.4517 38.5395 34.6971 38.3475C34.9424 38.1449 35.1077 37.8675 35.1931 37.5155C35.2784 37.1529 35.3211 36.7315 35.3211 36.2515V30.5715C35.3211 30.0915 35.2784 29.6809 35.1931 29.3395C35.1077 28.9875 34.9424 28.7209 34.6971 28.5395C34.4517 28.3475 34.0891 28.2515 33.6091 28.2515C33.1291 28.2515 32.7611 28.3475 32.5051 28.5395C32.2597 28.7209 32.0944 28.9875 32.0091 29.3395C31.9237 29.6809 31.8811 30.0915 31.8811 30.5715V36.2515C31.8811 36.7315 31.9237 37.1529 32.0091 37.5155C32.0944 37.8675 32.2597 38.1449 32.5051 38.3475C32.7611 38.5395 33.1291 38.6355 33.6091 38.6355ZM42.1701 40.0595C41.2527 40.0595 40.5381 39.8675 40.0261 39.4835C39.5247 39.0995 39.1727 38.5822 38.9701 37.9315C38.7781 37.2809 38.6821 36.5555 38.6821 35.7555V31.1795C38.6821 30.3049 38.7781 29.5422 38.9701 28.8915C39.1727 28.2409 39.5247 27.7395 40.0261 27.3875C40.5381 27.0249 41.2527 26.8435 42.1701 26.8435C42.9807 26.8435 43.6207 26.9929 44.0901 27.2915C44.5701 27.5902 44.9114 28.0169 45.1141 28.5715C45.3274 29.1262 45.4341 29.7929 45.4341 30.5715V31.5955H43.7221V30.6835C43.7221 30.2035 43.6954 29.7822 43.6421 29.4195C43.5994 29.0462 43.4714 28.7582 43.2581 28.5555C43.0447 28.3529 42.6874 28.2515 42.1861 28.2515C41.6741 28.2515 41.3007 28.3635 41.0661 28.5875C40.8314 28.8009 40.6767 29.1102 40.6021 29.5155C40.5381 29.9102 40.5061 30.3742 40.5061 30.9075V36.0435C40.5061 36.6942 40.5594 37.2115 40.6661 37.5955C40.7727 37.9689 40.9487 38.2355 41.1941 38.3955C41.4394 38.5555 41.7701 38.6355 42.1861 38.6355C42.6767 38.6355 43.0287 38.5289 43.2421 38.3155C43.4554 38.0915 43.5887 37.7875 43.6421 37.4035C43.6954 37.0195 43.7221 36.5715 43.7221 36.0595V35.0995H45.4341V36.0595C45.4341 36.8489 45.3381 37.5475 45.1461 38.1555C44.9541 38.7529 44.6234 39.2222 44.1541 39.5635C43.6847 39.8942 43.0234 40.0595 42.1701 40.0595ZM48.5804 39.9155V28.2995H46.3884V26.9555H52.5164V28.2995H50.3884V39.9155H48.5804ZM53.0618 39.9155L55.8138 26.9555H57.5578L60.3258 39.9155H58.6138L58.0218 36.6515H55.3818L54.7578 39.9155H53.0618ZM55.6218 35.3555H57.7818L56.6938 29.5155L55.6218 35.3555ZM61.6408 39.9155V26.9555H64.6168C65.2035 26.9555 65.7101 27.0195 66.1368 27.1475C66.5741 27.2755 66.9368 27.4729 67.2248 27.7395C67.5128 28.0062 67.7261 28.3475 67.8648 28.7635C68.0035 29.1689 68.0728 29.6489 68.0728 30.2035C68.0728 30.7369 68.0035 31.2009 67.8648 31.5955C67.7368 31.9795 67.5341 32.2835 67.2568 32.5075C66.9901 32.7315 66.6435 32.8755 66.2168 32.9395C66.7395 33.0569 67.1608 33.2595 67.4808 33.5475C67.8008 33.8249 68.0355 34.1875 68.1848 34.6355C68.3448 35.0729 68.4248 35.6009 68.4248 36.2195C68.4248 36.7742 68.3608 37.2809 68.2328 37.7395C68.1048 38.1982 67.9021 38.5875 67.6248 38.9075C67.3581 39.2275 67.0115 39.4782 66.5848 39.6595C66.1688 39.8302 65.6728 39.9155 65.0968 39.9155H61.6408ZM63.4488 38.6195H64.6648C65.4755 38.6195 66.0141 38.4329 66.2808 38.0595C66.5581 37.6755 66.6968 37.0622 66.6968 36.2195C66.6968 35.6755 66.6221 35.2222 66.4728 34.8595C66.3341 34.4862 66.1048 34.2089 65.7848 34.0275C65.4755 33.8355 65.0541 33.7395 64.5208 33.7395H63.4488V38.6195ZM63.4488 32.3635H64.5208C65.0328 32.3635 65.4328 32.2942 65.7208 32.1555C66.0088 32.0062 66.2115 31.7715 66.3288 31.4515C66.4461 31.1315 66.5048 30.7155 66.5048 30.2035C66.5048 29.6062 66.4141 29.1742 66.2328 28.9075C66.0515 28.6409 65.7688 28.4755 65.3848 28.4115C65.0008 28.3369 64.4995 28.2995 63.8808 28.2995H63.4488V32.3635ZM70.0314 39.9155V26.9555H71.6314V35.9315L75.4234 26.9555H76.7194V39.9155H75.1354V30.7955L71.3754 39.9155H70.0314ZM80.1742 39.9155V28.2995H77.9822V26.9555H84.1102V28.2995H81.9822V39.9155H80.1742ZM85.3596 39.9155V26.9555H87.1676V32.3475H87.6796C88.6182 32.3475 89.3916 32.4595 89.9996 32.6835C90.6076 32.8969 91.0609 33.2755 91.3596 33.8195C91.6689 34.3635 91.8236 35.1315 91.8236 36.1235C91.8236 36.7955 91.7436 37.3715 91.5836 37.8515C91.4236 38.3209 91.1729 38.7102 90.8316 39.0195C90.5009 39.3289 90.0796 39.5582 89.5676 39.7075C89.0662 39.8462 88.4636 39.9155 87.7596 39.9155H85.3596ZM87.1676 38.6195H87.7596C88.3036 38.6195 88.7462 38.5609 89.0876 38.4435C89.4396 38.3155 89.7009 38.0702 89.8716 37.7075C90.0422 37.3449 90.1276 36.8115 90.1276 36.1075C90.1276 35.2222 89.9569 34.5929 89.6156 34.2195C89.2742 33.8462 88.6449 33.6595 87.7276 33.6595H87.1676V38.6195ZM42.4259 64.0595C41.7219 64.0595 41.1353 63.9262 40.6659 63.6595C40.1966 63.3929 39.8446 63.0089 39.6099 62.5075C39.3753 62.0062 39.2579 61.4142 39.2579 60.7315V60.2995H40.9539C40.9539 60.3742 40.9539 60.4542 40.9539 60.5395C40.9539 60.6142 40.9593 60.6835 40.9699 60.7475C40.9913 61.3022 41.0979 61.7555 41.2899 62.1075C41.4819 62.4595 41.8606 62.6355 42.4259 62.6355C42.8419 62.6355 43.1566 62.5395 43.3699 62.3475C43.5833 62.1449 43.7273 61.8675 43.8019 61.5155C43.8766 61.1529 43.9139 60.7369 43.9139 60.2675C43.9139 59.5955 43.7646 59.0355 43.4659 58.5875C43.1673 58.1395 42.6019 57.8889 41.7699 57.8355C41.7273 57.8249 41.6739 57.8195 41.6099 57.8195C41.5566 57.8195 41.4979 57.8195 41.4339 57.8195C41.3806 57.8195 41.3273 57.8195 41.2739 57.8195V56.4435C41.3166 56.4435 41.3646 56.4435 41.4179 56.4435C41.4819 56.4435 41.5406 56.4435 41.5939 56.4435C41.6579 56.4329 41.7059 56.4275 41.7379 56.4275C42.5593 56.3742 43.1246 56.1609 43.4339 55.7875C43.7539 55.4035 43.9139 54.8702 43.9139 54.1875C43.9139 53.6009 43.7966 53.1315 43.5619 52.7795C43.3379 52.4169 42.9326 52.2355 42.3459 52.2355C41.7806 52.2355 41.3753 52.4169 41.1299 52.7795C40.8846 53.1315 40.7406 53.5955 40.6979 54.1715C40.6979 54.2355 40.6979 54.3049 40.6979 54.3795C40.6979 54.4435 40.6979 54.5129 40.6979 54.5875H38.9859V54.1555C38.9859 53.4622 39.1139 52.8702 39.3699 52.3795C39.6259 51.8889 39.9993 51.5102 40.4899 51.2435C40.9806 50.9769 41.5779 50.8435 42.2819 50.8435C42.9966 50.8435 43.5993 50.9822 44.0899 51.2595C44.5913 51.5262 44.9699 51.9102 45.2259 52.4115C45.4926 52.9022 45.6259 53.4942 45.6259 54.1875C45.6259 54.9662 45.4553 55.6009 45.1139 56.0915C44.7833 56.5822 44.3353 56.9075 43.7699 57.0675C44.1539 57.1955 44.4846 57.3982 44.7619 57.6755C45.0393 57.9529 45.2526 58.3102 45.4019 58.7475C45.5513 59.1742 45.6259 59.6809 45.6259 60.2675C45.6259 61.0355 45.5193 61.7075 45.3059 62.2835C45.0926 62.8489 44.7513 63.2862 44.2819 63.5955C43.8126 63.9049 43.1939 64.0595 42.4259 64.0595ZM46.5774 63.9155L49.3294 50.9555H51.0734L53.8414 63.9155H52.1294L51.5374 60.6515H48.8974L48.2734 63.9155H46.5774ZM49.1374 59.3555H51.2974L50.2094 53.5155L49.1374 59.3555ZM54.3564 63.9155L57.0764 58.0915C56.5004 57.8355 56.0364 57.4142 55.6844 56.8275C55.3431 56.2302 55.1724 55.4675 55.1724 54.5395C55.1724 53.8462 55.3004 53.2329 55.5564 52.6995C55.8124 52.1555 56.2391 51.7289 56.8364 51.4195C57.4338 51.1102 58.2338 50.9555 59.2364 50.9555H61.8604V63.9155H60.0524V58.5395H59.0284C59.0071 58.5395 58.9378 58.5395 58.8204 58.5395C58.7031 58.5289 58.6338 58.5235 58.6124 58.5235L56.3724 63.9155H54.3564ZM59.3804 57.2435H60.0524V52.2515H59.3324C58.5218 52.2515 57.9084 52.4275 57.4924 52.7795C57.0871 53.1315 56.8844 53.7129 56.8844 54.5235C56.8844 55.4409 57.0711 56.1235 57.4444 56.5715C57.8178 57.0195 58.4631 57.2435 59.3804 57.2435ZM63.8752 63.9155V50.9555H66.8512C67.4379 50.9555 67.9445 51.0195 68.3712 51.1475C68.8085 51.2755 69.1712 51.4729 69.4592 51.7395C69.7472 52.0062 69.9605 52.3475 70.0992 52.7635C70.2379 53.1689 70.3072 53.6489 70.3072 54.2035C70.3072 54.7369 70.2379 55.2009 70.0992 55.5955C69.9712 55.9795 69.7685 56.2835 69.4912 56.5075C69.2245 56.7315 68.8779 56.8755 68.4512 56.9395C68.9739 57.0569 69.3952 57.2595 69.7152 57.5475C70.0352 57.8249 70.2699 58.1875 70.4192 58.6355C70.5792 59.0729 70.6592 59.6009 70.6592 60.2195C70.6592 60.7742 70.5952 61.2809 70.4672 61.7395C70.3392 62.1982 70.1365 62.5875 69.8592 62.9075C69.5925 63.2275 69.2459 63.4782 68.8192 63.6595C68.4032 63.8302 67.9072 63.9155 67.3312 63.9155H63.8752ZM65.6832 62.6195H66.8992C67.7099 62.6195 68.2485 62.4329 68.5152 62.0595C68.7925 61.6755 68.9312 61.0622 68.9312 60.2195C68.9312 59.6755 68.8565 59.2222 68.7072 58.8595C68.5685 58.4862 68.3392 58.2089 68.0192 58.0275C67.7099 57.8355 67.2885 57.7395 66.7552 57.7395H65.6832V62.6195ZM65.6832 56.3635H66.7552C67.2672 56.3635 67.6672 56.2942 67.9552 56.1555C68.2432 56.0062 68.4459 55.7715 68.5632 55.4515C68.6805 55.1315 68.7392 54.7155 68.7392 54.2035C68.7392 53.6062 68.6485 53.1742 68.4672 52.9075C68.2859 52.6409 68.0032 52.4755 67.6192 52.4115C67.2352 52.3369 66.7339 52.2995 66.1152 52.2995H65.6832V56.3635ZM72.2658 63.9155V50.9555H74.0738V56.7155H74.7458L77.0658 50.9555H78.8738L76.3138 57.1155L79.1938 63.9155H77.3858L74.7618 57.5955H74.0738V63.9155H72.2658ZM80.2308 65.8835V64.4915C80.7855 64.5449 81.2121 64.5449 81.5108 64.4915C81.8201 64.4382 82.0335 64.3262 82.1508 64.1555C82.2788 63.9955 82.3428 63.7769 82.3428 63.4995C82.3428 63.2115 82.3108 62.8702 82.2468 62.4755L79.6868 50.9555H81.3988L82.4868 56.4755L83.1428 60.5875L83.7188 56.5075L84.6948 50.9555H86.4228L84.1028 62.5075C83.9961 63.0302 83.9055 63.4889 83.8308 63.8835C83.7668 64.2782 83.6708 64.6142 83.5428 64.8915C83.4255 65.1689 83.2441 65.3875 82.9988 65.5475C82.7535 65.7075 82.4068 65.8142 81.9588 65.8675C81.5215 65.9209 80.9455 65.9262 80.2308 65.8835Z" fill="white"/>
<path fill-rule="evenodd" clip-rule="evenodd" d="M61.9487 89.5338C95.4155 89.5338 122.993 69.7078 122.993 45.4725C122.993 21.2372 95.4155 0.297119 61.9487 0.297119C28.4819 0.297119 0.210449 21.2372 0.210449 45.4725C0.210449 69.7078 28.4819 89.5338 61.9487 89.5338ZM61.9487 80.5913C30.9947 80.5913 5.90156 64.5184 5.90156 42.1028C5.90156 19.6871 30.9947 2.08246 61.9487 2.08246C92.9027 2.08246 117.996 19.6871 117.996 42.1028C117.996 64.5184 92.9027 80.5913 61.9487 80.5913ZM61.6009 4.5333C65.7113 4.5333 69.0434 6.3741 69.0434 8.64484C69.0434 10.9156 65.7113 12.7564 61.6009 12.7564C57.4906 12.7564 54.1585 10.9156 54.1585 8.64484C54.1585 6.3741 57.4906 4.5333 61.6009 4.5333Z" fill="#4F131B"/>
</g>
<defs>
<clipPath id="clip0_401_212">
<rect width="123" height="90" fill="white"/>
</clipPath>
</defs>
</svg>
