<svg width="124" height="91" viewBox="0 0 124 91" fill="none" xmlns="http://www.w3.org/2000/svg">
<path d="M122.455 44.8575C122.443 20.5103 95.2763 0.786443 61.7765 0.803098C28.2767 0.819753 1.12955 20.5706 1.14166 44.9178C1.15376 69.265 28.3205 88.9889 61.8204 88.9722C95.3202 88.9556 122.467 69.2047 122.455 44.8575Z" fill="#54051C"/>
<path d="M123.19 45.9483C123.19 70.1836 95.6123 90.0096 62.1455 90.0096C28.6787 90.0096 0.407227 70.1836 0.407227 45.9483C0.407227 21.713 28.6787 0.772949 62.1455 0.772949C95.6123 0.772949 123.19 21.713 123.19 45.9483ZM6.09834 42.5786C6.09834 64.9942 31.1915 81.0671 62.1455 81.0671C93.0994 81.0671 118.193 64.9942 118.193 42.5786C118.193 20.1629 93.0994 2.55829 62.1455 2.55829C31.1915 2.55829 6.09834 20.1629 6.09834 42.5786Z" fill="#400002"/>
<path d="M69.2408 9.96146C69.2408 7.69072 65.9088 5.84992 61.7984 5.84992C57.6881 5.84992 54.356 7.69072 54.356 9.96146C54.356 12.2322 57.6881 14.073 61.7984 14.073C65.9088 14.073 69.2408 12.2322 69.2408 9.96146Z" fill="#400002"/>
<path d="M33.2553 40.5674C32.3379 40.5674 31.6073 40.3968 31.0633 40.0554C30.5193 39.7141 30.1299 39.2234 29.8953 38.5834C29.6606 37.9434 29.5433 37.1861 29.5433 36.3114V31.4634C29.5433 30.5888 29.6606 29.8421 29.8953 29.2234C30.1299 28.5941 30.5193 28.1141 31.0633 27.7834C31.6073 27.4527 32.3379 27.2874 33.2553 27.2874C34.1939 27.2874 34.9299 27.4527 35.4633 27.7834C36.0073 28.1141 36.3966 28.5941 36.6313 29.2234C36.8766 29.8421 36.9993 30.5888 36.9993 31.4634V36.3274C36.9993 37.1914 36.8766 37.9434 36.6313 38.5834C36.3966 39.2128 36.0073 39.7034 35.4633 40.0554C34.9299 40.3968 34.1939 40.5674 33.2553 40.5674ZM33.2553 38.8234C33.6499 38.8234 33.9379 38.7381 34.1193 38.5674C34.3113 38.3968 34.4393 38.1621 34.5033 37.8634C34.5673 37.5648 34.5993 37.2394 34.5993 36.8874V30.9194C34.5993 30.5568 34.5673 30.2314 34.5033 29.9434C34.4393 29.6554 34.3113 29.4314 34.1193 29.2714C33.9379 29.1008 33.6499 29.0154 33.2553 29.0154C32.8819 29.0154 32.5993 29.1008 32.4073 29.2714C32.2153 29.4314 32.0873 29.6554 32.0233 29.9434C31.9593 30.2314 31.9273 30.5568 31.9273 30.9194V36.8874C31.9273 37.2394 31.9539 37.5648 32.0073 37.8634C32.0713 38.1621 32.1993 38.3968 32.3913 38.5674C32.5833 38.7381 32.8713 38.8234 33.2553 38.8234Z" fill="white"/>
<path d="M42.2389 40.5674C41.2896 40.5674 40.5429 40.3808 39.9989 40.0074C39.4656 39.6341 39.0922 39.1274 38.8789 38.4874C38.6656 37.8368 38.5589 37.0901 38.5589 36.2474V31.6234C38.5589 30.7381 38.6656 29.9701 38.8789 29.3194C39.0922 28.6688 39.4656 28.1674 39.9989 27.8154C40.5429 27.4634 41.2896 27.2874 42.2389 27.2874C43.1349 27.2874 43.8336 27.4421 44.3349 27.7514C44.8469 28.0501 45.2096 28.4821 45.4229 29.0474C45.6362 29.6128 45.7429 30.2688 45.7429 31.0154V32.1034H43.4709V30.9834C43.4709 30.6208 43.4496 30.2901 43.4069 29.9914C43.3749 29.6928 43.2736 29.4581 43.1029 29.2874C42.9429 29.1061 42.6602 29.0154 42.2549 29.0154C41.8496 29.0154 41.5509 29.1114 41.3589 29.3034C41.1776 29.4848 41.0602 29.7354 41.0069 30.0554C40.9536 30.3648 40.9269 30.7168 40.9269 31.1114V36.7434C40.9269 37.2128 40.9642 37.6021 41.0389 37.9114C41.1136 38.2101 41.2469 38.4394 41.4389 38.5994C41.6416 38.7488 41.9136 38.8234 42.2549 38.8234C42.6496 38.8234 42.9269 38.7327 43.0869 38.5514C43.2576 38.3594 43.3642 38.1088 43.4069 37.7994C43.4496 37.4901 43.4709 37.1434 43.4709 36.7594V35.5914H45.7429V36.6314C45.7429 37.3994 45.6416 38.0821 45.4389 38.6794C45.2362 39.2661 44.8789 39.7301 44.3669 40.0714C43.8656 40.4021 43.1562 40.5674 42.2389 40.5674Z" fill="white"/>
<path d="M48.6875 40.3914V29.1754H46.6235V27.4314H53.0875V29.1754H51.0555V40.3914H48.6875Z" fill="white"/>
<path d="M53.6105 40.3914L56.2025 27.4314H58.7305L61.3225 40.3914H59.1305L58.6185 37.3994H56.3625L55.8345 40.3914H53.6105ZM56.6025 35.8954H58.3625L57.4825 30.4554L56.6025 35.8954Z" fill="white"/>
<path d="M62.6259 40.3914V27.4314H65.8099C66.3859 27.4314 66.9032 27.4848 67.3619 27.5914C67.8312 27.6981 68.2312 27.8794 68.5619 28.1354C68.9032 28.3808 69.1646 28.7168 69.3459 29.1434C69.5272 29.5701 69.6179 30.1088 69.6179 30.7594C69.6179 31.2821 69.5432 31.7301 69.3939 32.1034C69.2552 32.4768 69.0472 32.7754 68.7699 32.9994C68.4926 33.2128 68.1459 33.3568 67.7299 33.4314C68.2419 33.5168 68.6632 33.6981 68.9939 33.9754C69.3352 34.2421 69.5859 34.5941 69.7459 35.0314C69.9166 35.4688 70.0019 35.9967 70.0019 36.6154C70.0019 37.2341 69.9219 37.7834 69.7619 38.2634C69.6126 38.7328 69.3832 39.1274 69.0739 39.4474C68.7752 39.7568 68.3966 39.9914 67.9379 40.1514C67.4899 40.3114 66.9619 40.3914 66.3539 40.3914H62.6259ZM64.9939 38.7274H65.8899C66.6046 38.7274 67.0899 38.5568 67.3459 38.2154C67.6019 37.8634 67.7299 37.3248 67.7299 36.5994C67.7299 36.0768 67.6659 35.6554 67.5379 35.3354C67.4206 35.0048 67.2179 34.7594 66.9299 34.5994C66.6526 34.4394 66.2792 34.3594 65.8099 34.3594H64.9939V38.7274ZM64.9939 32.7274H65.7939C66.2632 32.7274 66.6259 32.6581 66.8819 32.5194C67.1379 32.3808 67.3139 32.1674 67.4099 31.8794C67.5166 31.5914 67.5699 31.2288 67.5699 30.7914C67.5699 30.3328 67.4899 29.9808 67.3299 29.7354C67.1806 29.4794 66.9512 29.3088 66.6419 29.2234C66.3326 29.1274 65.9379 29.0794 65.4579 29.0794H64.9939V32.7274Z" fill="white"/>
<path d="M71.5642 40.3914V27.4314H73.5002V35.6074L77.0522 27.4314H78.6362V40.3914H76.6842V32.0874L73.1161 40.3914H71.5642Z" fill="white"/>
<path d="M81.9219 40.3914V29.1754H79.8579V27.4314H86.3219V29.1754H84.2899V40.3914H81.9219Z" fill="white"/>
<path d="M87.5329 40.3914V27.4314H89.8849V32.8714H90.4609C91.3356 32.8714 92.0662 32.9941 92.6529 33.2394C93.2396 33.4741 93.6822 33.8688 93.9809 34.4234C94.2796 34.9674 94.4289 35.7034 94.4289 36.6314C94.4289 37.3568 94.3382 37.9648 94.1569 38.4554C93.9756 38.9354 93.7036 39.3194 93.3409 39.6074C92.9889 39.8954 92.5622 40.0981 92.0609 40.2154C91.5596 40.3328 90.9942 40.3914 90.3649 40.3914H87.5329ZM89.8849 38.7914H90.3649C90.8236 38.7914 91.1862 38.7274 91.4529 38.5994C91.7302 38.4714 91.9329 38.2474 92.0609 37.9274C92.1889 37.5968 92.2529 37.1488 92.2529 36.5834C92.2422 35.9114 92.1036 35.3994 91.8369 35.0474C91.5809 34.6954 91.0796 34.5194 90.3329 34.5194H89.8849V38.7914Z" fill="white"/>
<path d="M42.2057 64.5834C41.4057 64.5834 40.7551 64.4341 40.2537 64.1354C39.7631 63.8261 39.4057 63.3941 39.1817 62.8394C38.9577 62.2741 38.8457 61.6181 38.8457 60.8714V60.4234H41.0537C41.0537 60.4768 41.0537 60.5514 41.0537 60.6474C41.0537 60.7328 41.0537 60.8181 41.0537 60.9034C41.0644 61.5008 41.1497 61.9541 41.3097 62.2634C41.4697 62.5728 41.779 62.7274 42.2377 62.7274C42.5684 62.7274 42.8137 62.6474 42.9737 62.4874C43.1444 62.3274 43.2564 62.0981 43.3097 61.7994C43.3737 61.4901 43.4057 61.1221 43.4057 60.6954C43.4057 60.0341 43.2831 59.5114 43.0377 59.1274C42.8031 58.7327 42.3284 58.5194 41.6137 58.4874C41.5817 58.4768 41.5284 58.4714 41.4537 58.4714C41.3897 58.4714 41.315 58.4714 41.2297 58.4714C41.1444 58.4714 41.0644 58.4714 40.9897 58.4714V56.9034C41.0537 56.9034 41.1177 56.9034 41.1817 56.9034C41.2457 56.9034 41.3097 56.9034 41.3737 56.9034C41.4484 56.9034 41.507 56.9034 41.5497 56.9034C42.275 56.8714 42.7657 56.6794 43.0217 56.3274C43.2777 55.9754 43.4057 55.4634 43.4057 54.7914C43.4057 54.2474 43.3097 53.8208 43.1177 53.5114C42.9364 53.2021 42.6057 53.0474 42.1257 53.0474C41.6777 53.0474 41.3577 53.2074 41.1657 53.5274C40.9844 53.8474 40.8777 54.2688 40.8457 54.7914C40.8457 54.8341 40.8457 54.9141 40.8457 55.0314C40.8457 55.1381 40.8457 55.2501 40.8457 55.3674H38.6377V54.7434C38.6377 54.0074 38.7764 53.3834 39.0537 52.8714C39.331 52.3488 39.7257 51.9541 40.2377 51.6874C40.7604 51.4101 41.3844 51.2714 42.1097 51.2714C42.8457 51.2714 43.4697 51.4101 43.9817 51.6874C44.5044 51.9541 44.9044 52.3434 45.1817 52.8554C45.459 53.3568 45.5977 53.9754 45.5977 54.7114C45.5977 55.4794 45.4324 56.1141 45.1017 56.6154C44.7817 57.1168 44.3764 57.4367 43.8857 57.5754C44.2164 57.7034 44.5097 57.8954 44.7657 58.1514C45.0324 58.3968 45.235 58.7274 45.3737 59.1434C45.523 59.5488 45.5977 60.0554 45.5977 60.6634C45.5977 61.4421 45.4857 62.1301 45.2617 62.7274C45.0377 63.3141 44.675 63.7728 44.1737 64.1034C43.683 64.4234 43.0271 64.5834 42.2057 64.5834Z" fill="white"/>
<path d="M46.5402 64.3914L49.1322 51.4314H51.6602L54.2522 64.3914H52.0602L51.5482 61.3994H49.2922L48.7642 64.3914H46.5402ZM49.5322 59.8954H51.2922L50.4122 54.4554L49.5322 59.8954Z" fill="white"/>
<path d="M54.7556 64.3914L57.3476 58.5994C56.8143 58.3221 56.3823 57.8954 56.0516 57.3194C55.7209 56.7328 55.5556 56.0127 55.5556 55.1594C55.5556 54.3061 55.7103 53.6074 56.0196 53.0634C56.3289 52.5088 56.7929 52.0981 57.4116 51.8314C58.0409 51.5648 58.8356 51.4314 59.7956 51.4314H62.7876V64.3914H60.4356V59.1434H59.6836C59.6623 59.1434 59.6143 59.1434 59.5396 59.1434C59.4649 59.1434 59.4169 59.1434 59.3956 59.1434L57.3316 64.3914H54.7556ZM59.9076 57.4794H60.4356V53.0794H59.8596C59.1663 53.0794 58.6436 53.2501 58.2916 53.5914C57.9396 53.9221 57.7636 54.4447 57.7636 55.1594C57.7636 55.8954 57.9183 56.4661 58.2276 56.8714C58.5476 57.2768 59.1076 57.4794 59.9076 57.4794Z" fill="white"/>
<path d="M64.7743 64.3914V51.4314H67.9583C68.5343 51.4314 69.0517 51.4848 69.5103 51.5914C69.9797 51.6981 70.3797 51.8794 70.7103 52.1354C71.0517 52.3808 71.313 52.7168 71.4943 53.1434C71.6757 53.5701 71.7663 54.1088 71.7663 54.7594C71.7663 55.2821 71.6917 55.7301 71.5423 56.1034C71.4037 56.4767 71.1957 56.7754 70.9183 56.9994C70.641 57.2128 70.2943 57.3568 69.8783 57.4314C70.3903 57.5168 70.8117 57.6981 71.1423 57.9754C71.4837 58.2421 71.7343 58.5941 71.8943 59.0314C72.065 59.4688 72.1503 59.9967 72.1503 60.6154C72.1503 61.2341 72.0703 61.7834 71.9103 62.2634C71.761 62.7328 71.5317 63.1274 71.2223 63.4474C70.9237 63.7568 70.545 63.9914 70.0863 64.1514C69.6383 64.3114 69.1103 64.3914 68.5023 64.3914H64.7743ZM67.1423 62.7274H68.0383C68.753 62.7274 69.2383 62.5568 69.4943 62.2154C69.7503 61.8634 69.8783 61.3248 69.8783 60.5994C69.8783 60.0768 69.8143 59.6554 69.6863 59.3354C69.569 59.0048 69.3663 58.7594 69.0783 58.5994C68.801 58.4394 68.4277 58.3594 67.9583 58.3594H67.1423V62.7274ZM67.1423 56.7274H67.9423C68.4117 56.7274 68.7743 56.6581 69.0303 56.5194C69.2863 56.3807 69.4623 56.1674 69.5583 55.8794C69.665 55.5914 69.7183 55.2288 69.7183 54.7914C69.7183 54.3328 69.6383 53.9808 69.4783 53.7354C69.329 53.4794 69.0997 53.3088 68.7903 53.2234C68.481 53.1274 68.0863 53.0794 67.6063 53.0794H67.1423V56.7274Z" fill="white"/>
<path d="M73.7126 64.3914V51.4314H76.0646V56.8714H76.5446L78.6406 51.4314H80.9926L78.5286 57.5434L81.1846 64.3914H78.7846L76.5446 58.4234H76.0646V64.3914H73.7126Z" fill="white"/>
<path d="M82.2088 66.6634V65.0154C82.7102 65.0474 83.1208 65.0368 83.4408 64.9834C83.7715 64.9301 84.0222 64.8234 84.1928 64.6634C84.3635 64.5034 84.4648 64.2901 84.4968 64.0234C84.5288 63.7461 84.5075 63.4101 84.4328 63.0154L81.6968 51.4314H83.8888L84.9928 56.8554L85.5848 60.6314L86.0648 56.8554L87.0248 51.4314H89.2488L86.7368 63.2554C86.6195 63.8101 86.4968 64.2847 86.3688 64.6794C86.2515 65.0847 86.0968 65.4207 85.9048 65.6874C85.7235 65.9648 85.4782 66.1781 85.1688 66.3274C84.8595 66.4767 84.4648 66.5728 83.9848 66.6154C83.5048 66.6687 82.9128 66.6848 82.2088 66.6634Z" fill="white"/>
</svg>
