<svg width="48" height="45" viewBox="0 0 48 45" fill="none" xmlns="http://www.w3.org/2000/svg">
<path d="M10.4028 18.0023C11.7521 16.8806 13.7606 17.0586 14.889 18.3999L21.9716 26.8189L33.4224 13.3318C34.5569 11.9956 36.5662 11.8266 37.9104 12.9544C39.2546 14.0821 39.4246 16.0796 38.2901 17.4158L24.4261 33.7452C24.3719 33.8109 24.3148 33.8748 24.2547 33.9367C24.0013 34.1987 23.7117 34.4086 23.4005 34.5651C22.1076 35.218 20.4872 34.9246 19.5172 33.7716L10.0028 22.4619C8.87442 21.1206 9.05349 19.124 10.4028 18.0023Z" fill="#4F131B"/>
<path fill-rule="evenodd" clip-rule="evenodd" d="M48 22.5C48 34.9264 37.2548 45 24 45C10.7452 45 0 34.9264 0 22.5C0 10.0736 10.7452 0 24 0C37.2548 0 48 10.0736 48 22.5ZM4.95573 22.5C4.95573 32.3605 13.4821 40.354 24 40.354C34.5179 40.354 43.0443 32.3605 43.0443 22.5C43.0443 12.6395 34.5179 4.646 24 4.646C13.4821 4.646 4.95573 12.6395 4.95573 22.5Z" fill="#4F131B"/>
</svg>
