<svg width="103" height="94" viewBox="0 0 103 94" fill="none" xmlns="http://www.w3.org/2000/svg">
<path fill-rule="evenodd" clip-rule="evenodd" d="M22.38 0.787476H17.5657V0.832682H3.97043C2.31357 0.832682 0.970425 2.17583 0.970425 3.83268V6.13452H17.5657V46.5544L9.85166 62.7005V20.5671C9.85166 20.4243 9.82171 20.2885 9.76775 20.1655C9.80344 19.9512 9.7771 19.726 9.67875 19.523L5.78505 11.4857V6.13486H0.970758V11.9637C0.855629 12.2433 0.853066 12.5686 0.989916 12.8511L5.03737 21.2058V72.7308C5.03737 72.7457 5.03769 72.7605 5.03833 72.7752L1.93239 79.2763C1.90356 79.3366 1.88107 79.3989 1.86466 79.4622C1.63888 79.6421 1.49278 79.9182 1.48879 80.2298L1.32857 92.7286C1.32149 93.2808 1.76341 93.7354 2.31563 93.744L2.8971 93.7531C2.96905 93.7695 3.04395 93.7782 3.12088 93.7782H4.51384L5.1705 93.7884C5.22488 93.7893 5.27829 93.7857 5.33042 93.7782H100.741C101.294 93.7782 101.741 93.3305 101.741 92.7782V91.7032L101.884 80.6026C101.887 80.3272 101.779 80.0761 101.601 79.8924L98.7207 73.8625V21.2741L102.78 12.8954C102.921 12.6035 102.913 12.2659 102.787 11.9802V6.17929H97.9725V11.5547L94.0909 19.5674C93.9954 19.7646 93.9678 19.9827 93.999 20.1915C93.9396 20.3194 93.9064 20.4621 93.9064 20.6124V63.7846L86.1909 47.6335V6.17883H102.786V3.87699C102.786 2.22014 101.443 0.876994 99.7862 0.876994H86.1909V0.832764H81.3766V5.35366H78.0469V5.35339H73.8833V5.35366H51.3349C50.2303 5.35366 49.3349 6.24909 49.3349 7.35366V8.00107C49.3349 9.10564 50.2303 10.0011 51.3349 10.0011H73.8833V14.2699H38.2163V10.001H44.7119C45.8164 10.001 46.7119 9.10559 46.7119 8.00102V7.35361C46.7119 6.24904 45.8164 5.35361 44.7119 5.35361H38.2163V5.35339H34.0527V5.35361H22.38V0.787476ZM78.0469 10.0011H81.3766V44.6694H56.6382L56.6522 42.6113C56.6542 42.3293 56.4272 42.0982 56.1452 42.0951C55.8633 42.092 55.6332 42.3181 55.6312 42.6L55.6171 44.6694H22.38V10.001H34.0527V14.2699V18.9171V18.9173H42.1058V27.0283L42.1053 27.0287L50.8713 40.8347C51.1185 41.5244 51.7222 42.0025 52.4176 42.0026L60.046 42.0028C60.7121 42.0028 61.2979 41.5632 61.5625 40.913L70.0743 26.9646H70.076V18.9173H78.0482V14.2699H78.0469V10.0011ZM55.5816 49.8721H51.4595L52.9238 51.645H55.5695L55.5816 49.8721ZM56.5739 54.097C56.8662 53.8404 57.0507 53.4641 57.0507 53.0446C57.0507 52.632 56.8722 52.2611 56.5882 52.005L56.6027 49.8721H81.8205L97.0142 81.6777L96.9258 88.5756H6.2374L6.32861 81.461L21.4206 49.8721H50.1543C50.1664 50.0228 50.2197 50.1694 50.3132 50.2827L51.4384 51.645H49.6065C48.8335 51.645 48.2069 52.2716 48.2069 53.0446C48.2069 53.8176 48.8335 54.4442 49.6065 54.4442H50.7054V55.4391L48.8376 55.4328C48.4783 55.4316 48.1864 55.7219 48.1857 56.0812C48.1853 56.2682 48.2638 56.4371 48.3899 56.5562C46.4587 56.8528 44.5914 57.3598 42.8541 58.0629C41.7421 58.5129 41.5748 59.6315 42.3932 60.46C43.2116 61.2884 44.7047 61.509 45.8425 61.0926C48.03 60.292 50.4674 59.9009 52.926 59.9697C56.1517 60.0599 59.2251 60.9364 61.649 62.4572C64.0728 63.978 65.7052 66.0542 66.2819 68.3497C66.8586 70.6452 66.3458 73.0257 64.8267 75.1059C63.3075 77.1861 60.8708 78.8443 57.9109 79.8121C54.9511 80.7798 51.6413 81.0005 48.5173 80.4385C45.506 79.8967 42.8371 78.6581 40.9102 76.913C40.7662 76.7826 40.6107 76.6592 40.4483 76.5414C38.7525 75.3106 37.7743 73.6066 37.4402 71.8652C37.4088 71.7013 37.3482 71.5412 37.263 71.3893H39.0303C39.923 71.3893 40.3683 70.3084 39.7347 69.6796L36.0649 66.0374C35.675 65.6504 35.046 65.6504 34.6561 66.0374L30.9863 69.6796C30.3526 70.3084 30.798 71.3893 31.6907 71.3893H33.4834C33.4801 71.4326 33.4797 71.4766 33.4823 71.5214C33.631 74.0605 34.5352 76.2423 36.4576 78.8048C36.5496 78.9276 36.6555 79.0457 36.7746 79.1557C39.3985 81.5787 43.0666 83.2979 47.2132 84.044C51.4539 84.807 55.9469 84.5074 59.9648 83.1937C63.9828 81.88 67.2905 79.629 69.3528 76.8052C71.415 73.9814 72.111 70.7499 71.3282 67.6338C70.5453 64.5177 68.3294 61.6993 65.0391 59.6348C62.9541 58.3266 60.515 57.3696 57.8936 56.8129L62.8405 53.7835C63.1357 53.6027 63.2753 53.1938 63.1522 52.8702C63.0292 52.5466 62.6901 52.4309 62.3948 52.6117L57.4468 55.6418C57.1515 55.8226 57.012 56.2315 57.135 56.5551C57.1517 56.599 57.1724 56.639 57.1964 56.6751C56.9789 56.6352 56.7603 56.5981 56.5407 56.5637C56.5941 56.4767 56.6253 56.3744 56.626 56.2646L56.627 56.1277C56.6293 55.8063 56.3706 55.5426 56.0491 55.5389C55.7276 55.5352 55.4652 55.7928 55.4629 56.1143L55.4619 56.2512C55.4615 56.3101 55.4698 56.367 55.4857 56.4208C55.2637 56.3953 55.0409 56.3726 54.8173 56.3527C54.8492 56.276 54.867 56.192 54.8672 56.1037C54.8677 55.8668 54.7415 55.6591 54.5525 55.5447V55.3576C54.7447 55.4618 54.9745 55.4119 55.1259 55.2107C55.2843 55.0001 55.3082 54.6884 55.2014 54.4442H55.5504L55.5482 54.767C55.5463 55.049 55.7733 55.2801 56.0552 55.2832C56.3372 55.2863 56.5673 55.0602 56.5692 54.7783L56.5739 54.097ZM58.6913 53.921C58.8983 53.6703 58.9078 53.2562 58.7123 52.9963C58.5168 52.7363 58.1904 52.7289 57.9833 52.9797L57.028 54.1366C56.8209 54.3874 56.8115 54.8015 57.007 55.0614C57.2025 55.3214 57.5288 55.3288 57.7359 55.078L58.6913 53.921ZM60.6286 50.69C60.8241 50.9499 60.8147 51.364 60.6076 51.6148L59.6522 52.7717C59.4451 53.0225 59.1188 53.0151 58.9233 52.7551C58.7278 52.4952 58.7372 52.0812 58.9443 51.8304L59.8997 50.6734C60.1068 50.4226 60.4331 50.4301 60.6286 50.69ZM53.7491 37.4212L58.8231 37.3813L64.2564 28.3144H60.9982C60.0784 28.3144 59.3328 27.4821 59.3328 26.4554V25.5259C59.3328 24.4992 60.0784 23.6669 60.9982 23.6669H65.8738V18.9173H46.3628V23.7255L54.3325 23.6628C55.2523 23.6556 56.0031 24.482 56.0096 25.5086L56.0155 26.4381C56.022 27.4648 55.2816 28.3029 54.3618 28.3101L48.0359 28.3599L53.7491 37.4212ZM58.591 65.4007C59.0562 65.7401 59.1082 66.2963 58.7103 66.6762L55.2879 69.9431C55.1653 70.0601 55.0246 70.1581 54.8715 70.237L54.8716 70.2617C54.8716 71.527 53.5436 72.5527 51.9053 72.5527C50.2671 72.5527 48.939 71.527 48.939 70.2617C48.939 68.9963 50.2671 67.9706 51.9053 67.9706C52.0758 67.9706 52.2429 67.9817 52.4055 68.003C52.4823 67.9395 52.5677 67.8803 52.6616 67.8265L57.0314 65.3231C57.5023 65.0534 58.1598 65.0861 58.591 65.4007Z" fill="#4F131B"/>
</svg>
