<svg width="207" height="80" viewBox="0 0 207 80" fill="none" xmlns="http://www.w3.org/2000/svg">
<path d="M95.085 60.989H199.831" stroke="#2D2D2D" stroke-width="3" stroke-linecap="round"/>
<path d="M94.0845 37.5004L94.3645 21.3004H97.4245L99.7245 32.5204L102.124 21.3004H105.084L105.384 37.5004H103.184L102.944 26.2404L100.644 37.5004H98.8645L96.5245 26.2004L96.3045 37.5004H94.0845ZM107.157 37.5004L110.397 21.3004H113.557L116.797 37.5004H114.057L113.417 33.7604H110.597L109.937 37.5004H107.157ZM110.897 31.8804H113.097L111.997 25.0804L110.897 31.8804ZM122.986 37.7204C121.799 37.7204 120.866 37.4871 120.186 37.0204C119.519 36.5538 119.053 35.9204 118.786 35.1204C118.519 34.3071 118.386 33.3738 118.386 32.3204V26.5404C118.386 25.4338 118.519 24.4738 118.786 23.6604C119.053 22.8471 119.519 22.2204 120.186 21.7804C120.866 21.3404 121.799 21.1204 122.986 21.1204C124.106 21.1204 124.979 21.3138 125.606 21.7004C126.246 22.0738 126.699 22.6138 126.966 23.3204C127.233 24.0271 127.366 24.8471 127.366 25.7804V27.1404H124.526V25.7404C124.526 25.2871 124.499 24.8738 124.446 24.5004C124.406 24.1271 124.279 23.8338 124.066 23.6204C123.866 23.3938 123.513 23.2804 123.006 23.2804C122.499 23.2804 122.126 23.4004 121.886 23.6404C121.659 23.8671 121.513 24.1804 121.446 24.5804C121.379 24.9671 121.346 25.4071 121.346 25.9004V32.9404C121.346 33.5271 121.393 34.0138 121.486 34.4004C121.579 34.7738 121.746 35.0604 121.986 35.2604C122.239 35.4471 122.579 35.5404 123.006 35.5404C123.499 35.5404 123.846 35.4271 124.046 35.2004C124.259 34.9604 124.393 34.6471 124.446 34.2604C124.499 33.8738 124.526 33.4404 124.526 32.9604V31.5004H127.366V32.8004C127.366 33.7604 127.239 34.6138 126.986 35.3604C126.733 36.0938 126.286 36.6738 125.646 37.1004C125.019 37.5138 124.133 37.7204 122.986 37.7204ZM131.247 37.5004V23.4804H128.667V21.3004H136.747V23.4804H134.207V37.5004H131.247ZM138.42 37.5004V21.3004H145.22V23.3804H141.38V28.0404H144.4V30.1004H141.38V35.4604H145.26V37.5004H138.42ZM147.175 37.5004V21.3004H151.935C152.908 21.3004 153.695 21.4804 154.295 21.8404C154.908 22.2004 155.355 22.7271 155.635 23.4204C155.928 24.1004 156.075 24.9271 156.075 25.9004C156.075 26.9538 155.895 27.8071 155.535 28.4604C155.175 29.1004 154.668 29.5671 154.015 29.8604C153.375 30.1538 152.615 30.3004 151.735 30.3004H150.135V37.5004H147.175ZM150.135 28.2204H151.255C151.788 28.2204 152.202 28.1471 152.495 28.0004C152.802 27.8404 153.008 27.5938 153.115 27.2604C153.235 26.9138 153.295 26.4538 153.295 25.8804C153.295 25.2938 153.248 24.8204 153.155 24.4604C153.075 24.0871 152.888 23.8138 152.595 23.6404C152.315 23.4671 151.868 23.3804 151.255 23.3804H150.135V28.2204ZM162.282 37.7204C161.095 37.7204 160.162 37.4871 159.482 37.0204C158.815 36.5538 158.349 35.9204 158.082 35.1204C157.815 34.3071 157.682 33.3738 157.682 32.3204V26.5404C157.682 25.4338 157.815 24.4738 158.082 23.6604C158.349 22.8471 158.815 22.2204 159.482 21.7804C160.162 21.3404 161.095 21.1204 162.282 21.1204C163.402 21.1204 164.275 21.3138 164.902 21.7004C165.542 22.0738 165.995 22.6138 166.262 23.3204C166.529 24.0271 166.662 24.8471 166.662 25.7804V27.1404H163.822V25.7404C163.822 25.2871 163.795 24.8738 163.742 24.5004C163.702 24.1271 163.575 23.8338 163.362 23.6204C163.162 23.3938 162.809 23.2804 162.302 23.2804C161.795 23.2804 161.422 23.4004 161.182 23.6404C160.955 23.8671 160.809 24.1804 160.742 24.5804C160.675 24.9671 160.642 25.4071 160.642 25.9004V32.9404C160.642 33.5271 160.689 34.0138 160.782 34.4004C160.875 34.7738 161.042 35.0604 161.282 35.2604C161.535 35.4471 161.875 35.5404 162.302 35.5404C162.795 35.5404 163.142 35.4271 163.342 35.2004C163.555 34.9604 163.689 34.6471 163.742 34.2604C163.795 33.8738 163.822 33.4404 163.822 32.9604V31.5004H166.662V32.8004C166.662 33.7604 166.535 34.6138 166.282 35.3604C166.029 36.0938 165.582 36.6738 164.942 37.1004C164.315 37.5138 163.429 37.7204 162.282 37.7204ZM168.963 37.5004V21.3004H171.903V28.1004H172.503L175.123 21.3004H178.063L174.983 28.9404L178.303 37.5004H175.303L172.503 30.0404H171.903V37.5004H168.963ZM179.123 37.5004L182.363 21.3004H185.523L188.763 37.5004H186.023L185.383 33.7604H182.563L181.903 37.5004H179.123ZM182.863 31.8804H185.063L183.963 25.0804L182.863 31.8804ZM189.592 37.5004L192.832 30.2604C192.166 29.9138 191.626 29.3804 191.212 28.6604C190.799 27.9271 190.592 27.0271 190.592 25.9604C190.592 24.8938 190.786 24.0204 191.172 23.3404C191.559 22.6471 192.139 22.1338 192.912 21.8004C193.699 21.4671 194.692 21.3004 195.892 21.3004H199.632V37.5004H196.692V30.9404H195.752C195.726 30.9404 195.666 30.9404 195.572 30.9404C195.479 30.9404 195.419 30.9404 195.392 30.9404L192.812 37.5004H189.592ZM196.032 28.8604H196.692V23.3604H195.972C195.106 23.3604 194.452 23.5738 194.012 24.0004C193.572 24.4138 193.352 25.0671 193.352 25.9604C193.352 26.8804 193.546 27.5938 193.932 28.1004C194.332 28.6071 195.032 28.8604 196.032 28.8604Z" fill="#2D2D2D"/>
<path d="M94.3906 55.2764V39.0764H101.25V41.2564H97.3306V55.2764H94.3906ZM103.066 55.2764V39.0764H107.826C108.799 39.0764 109.586 39.2564 110.186 39.6164C110.799 39.9764 111.246 40.503 111.526 41.1964C111.819 41.8764 111.966 42.703 111.966 43.6764C111.966 44.7297 111.786 45.583 111.426 46.2364C111.066 46.8764 110.559 47.343 109.906 47.6364C109.266 47.9297 108.506 48.0764 107.626 48.0764H106.026V55.2764H103.066ZM106.026 45.9964H107.146C107.679 45.9964 108.093 45.923 108.386 45.7764C108.693 45.6164 108.899 45.3697 109.006 45.0364C109.126 44.6897 109.186 44.2297 109.186 43.6564C109.186 43.0697 109.139 42.5964 109.046 42.2364C108.966 41.863 108.779 41.5897 108.486 41.4164C108.206 41.243 107.759 41.1564 107.146 41.1564H106.026V45.9964ZM112.7 55.2764L115.94 39.0764H119.1L122.34 55.2764H119.6L118.96 51.5364H116.14L115.48 55.2764H112.7ZM116.44 49.6564H118.64L117.54 42.8564L116.44 49.6564ZM124.169 55.2764V39.0764H128.149C128.869 39.0764 129.516 39.143 130.089 39.2764C130.676 39.4097 131.176 39.6364 131.589 39.9564C132.016 40.263 132.342 40.683 132.569 41.2164C132.796 41.7497 132.909 42.423 132.909 43.2364C132.909 43.8897 132.816 44.4497 132.629 44.9164C132.456 45.383 132.196 45.7564 131.849 46.0364C131.502 46.303 131.069 46.483 130.549 46.5764C131.189 46.683 131.716 46.9097 132.129 47.2564C132.556 47.5897 132.869 48.0297 133.069 48.5764C133.282 49.123 133.389 49.783 133.389 50.5564C133.389 51.3297 133.289 52.0164 133.089 52.6164C132.902 53.203 132.616 53.6964 132.229 54.0964C131.856 54.483 131.382 54.7764 130.809 54.9764C130.249 55.1764 129.589 55.2764 128.829 55.2764H124.169ZM127.129 53.1964H128.249C129.142 53.1964 129.749 52.983 130.069 52.5564C130.389 52.1164 130.549 51.443 130.549 50.5364C130.549 49.883 130.469 49.3564 130.309 48.9564C130.162 48.543 129.909 48.2364 129.549 48.0364C129.202 47.8364 128.736 47.7364 128.149 47.7364H127.129V53.1964ZM127.129 45.6964H128.129C128.716 45.6964 129.169 45.6097 129.489 45.4364C129.809 45.263 130.029 44.9964 130.149 44.6364C130.282 44.2764 130.349 43.823 130.349 43.2764C130.349 42.703 130.249 42.263 130.049 41.9564C129.862 41.6364 129.576 41.423 129.189 41.3164C128.802 41.1964 128.309 41.1364 127.709 41.1364H127.129V45.6964ZM135.542 55.2764V39.0764H137.962V49.2964L142.402 39.0764H144.382V55.2764H141.942V44.8964L137.482 55.2764H135.542ZM147.069 55.2764V39.0764H151.829C152.802 39.0764 153.589 39.2564 154.189 39.6164C154.802 39.9764 155.249 40.503 155.529 41.1964C155.822 41.8764 155.969 42.703 155.969 43.6764C155.969 44.7297 155.789 45.583 155.429 46.2364C155.069 46.8764 154.562 47.343 153.909 47.6364C153.269 47.9297 152.509 48.0764 151.629 48.0764H150.029V55.2764H147.069ZM150.029 45.9964H151.149C151.682 45.9964 152.096 45.923 152.389 45.7764C152.696 45.6164 152.902 45.3697 153.009 45.0364C153.129 44.6897 153.189 44.2297 153.189 43.6564C153.189 43.0697 153.142 42.5964 153.049 42.2364C152.969 41.863 152.782 41.5897 152.489 41.4164C152.209 41.243 151.762 41.1564 151.149 41.1564H150.029V45.9964ZM162.216 55.4964C161.069 55.4964 160.156 55.283 159.476 54.8564C158.796 54.4297 158.309 53.8164 158.016 53.0164C157.723 52.2164 157.576 51.2697 157.576 50.1764V44.1164C157.576 43.023 157.723 42.0897 158.016 41.3164C158.309 40.5297 158.796 39.9297 159.476 39.5164C160.156 39.103 161.069 38.8964 162.216 38.8964C163.389 38.8964 164.309 39.103 164.976 39.5164C165.656 39.9297 166.143 40.5297 166.436 41.3164C166.743 42.0897 166.896 43.023 166.896 44.1164V50.1964C166.896 51.2764 166.743 52.2164 166.436 53.0164C166.143 53.803 165.656 54.4164 164.976 54.8564C164.309 55.283 163.389 55.4964 162.216 55.4964ZM162.216 53.3164C162.709 53.3164 163.069 53.2097 163.296 52.9964C163.536 52.783 163.696 52.4897 163.776 52.1164C163.856 51.743 163.896 51.3364 163.896 50.8964V43.4364C163.896 42.983 163.856 42.5764 163.776 42.2164C163.696 41.8564 163.536 41.5764 163.296 41.3764C163.069 41.163 162.709 41.0564 162.216 41.0564C161.749 41.0564 161.396 41.163 161.156 41.3764C160.916 41.5764 160.756 41.8564 160.676 42.2164C160.596 42.5764 160.556 42.983 160.556 43.4364V50.8964C160.556 51.3364 160.589 51.743 160.656 52.1164C160.736 52.4897 160.896 52.783 161.136 52.9964C161.376 53.2097 161.736 53.3164 162.216 53.3164ZM169.286 55.2764V39.0764H173.266C173.986 39.0764 174.632 39.143 175.206 39.2764C175.792 39.4097 176.292 39.6364 176.706 39.9564C177.132 40.263 177.459 40.683 177.686 41.2164C177.912 41.7497 178.026 42.423 178.026 43.2364C178.026 43.8897 177.932 44.4497 177.746 44.9164C177.572 45.383 177.312 45.7564 176.966 46.0364C176.619 46.303 176.186 46.483 175.666 46.5764C176.306 46.683 176.832 46.9097 177.246 47.2564C177.672 47.5897 177.986 48.0297 178.186 48.5764C178.399 49.123 178.506 49.783 178.506 50.5564C178.506 51.3297 178.406 52.0164 178.206 52.6164C178.019 53.203 177.732 53.6964 177.346 54.0964C176.972 54.483 176.499 54.7764 175.926 54.9764C175.366 55.1764 174.706 55.2764 173.946 55.2764H169.286ZM172.246 53.1964H173.366C174.259 53.1964 174.866 52.983 175.186 52.5564C175.506 52.1164 175.666 51.443 175.666 50.5364C175.666 49.883 175.586 49.3564 175.426 48.9564C175.279 48.543 175.026 48.2364 174.666 48.0364C174.319 47.8364 173.852 47.7364 173.266 47.7364H172.246V53.1964ZM172.246 45.6964H173.246C173.832 45.6964 174.286 45.6097 174.606 45.4364C174.926 45.263 175.146 44.9964 175.266 44.6364C175.399 44.2764 175.466 43.823 175.466 43.2764C175.466 42.703 175.366 42.263 175.166 41.9564C174.979 41.6364 174.692 41.423 174.306 41.3164C173.919 41.1964 173.426 41.1364 172.826 41.1364H172.246V45.6964ZM180.658 55.2764V39.0764H183.598V45.8764H184.198L186.818 39.0764H189.758L186.678 46.7164L189.998 55.2764H186.998L184.198 47.8164H183.598V55.2764H180.658ZM191.679 55.2764V39.0764H194.099V49.2964L198.539 39.0764H200.519V55.2764H198.079V44.8964L193.619 55.2764H191.679Z" fill="#2D2D2D"/>
<path d="M40.4458 79.946V16.146H46.897V79.946H40.4458Z" fill="#2D2D2D"/>
<path d="M76.2411 19.3716H40.4458V12.9204H76.2411V19.3716Z" fill="#2D2D2D"/>
<path d="M73.0152 25.6417C71.2337 25.6417 69.7896 24.1975 69.7896 22.4161V13.1015H76.2408V22.4161C76.2408 24.1975 74.7966 25.6417 73.0152 25.6417Z" fill="#2D2D2D"/>
<path d="M36.4302 76.4046C36.4302 74.4488 38.0157 72.8632 39.9716 72.8632H48.9704V79.946H39.9716C38.0157 79.946 36.4302 78.3605 36.4302 76.4046Z" fill="#2D2D2D"/>
<path d="M37.2202 12.642C35.4387 12.642 33.9946 11.1979 33.9946 9.41638V0.101807H40.4458V9.41638C40.4458 11.1979 39.0016 12.642 37.2202 12.642Z" fill="#2D2D2D"/>
<path d="M40.4458 0.0539551H22.9342C10.268 0.0539551 0 10.322 0 22.9882C0 35.6544 10.268 45.9224 22.9342 45.9224H40.4458V38.6153H22.9342C14.3036 38.6153 7.30716 31.6188 7.30716 22.9882C7.30716 14.3576 14.3036 7.36112 22.9342 7.36112H40.4458V0.0539551Z" fill="#2D2D2D"/>
<path d="M43.6714 79.946H64.3848C75.8244 79.946 85.0981 70.6724 85.0981 59.2327C85.0981 47.7931 75.8244 38.5194 64.3848 38.5194H43.6714V45.8265H64.3848C71.7888 45.8265 77.7909 51.8287 77.7909 59.2327C77.7909 66.6367 71.7888 72.6389 64.3848 72.6389H43.6714V79.946Z" fill="#2D2D2D"/>
</svg>
