<svg width="202" height="81" viewBox="0 0 202 81" fill="none" xmlns="http://www.w3.org/2000/svg">
<g clip-path="url(#clip0_701_962)">
<path d="M94.8584 37.9897L95.1384 21.7897H98.1984L100.499 33.0097L102.899 21.7897H105.859L106.159 37.9897H103.959L103.719 26.7297L101.419 37.9897H99.6384L97.2984 26.6897L97.0784 37.9897H94.8584ZM107.931 37.9897L111.171 21.7897H114.331L117.571 37.9897H114.831L114.191 34.2497H111.371L110.711 37.9897H107.931ZM111.671 32.3697H113.871L112.771 25.5697L111.671 32.3697ZM123.76 38.2097C122.574 38.2097 121.64 37.9764 120.96 37.5097C120.294 37.043 119.827 36.4097 119.56 35.6097C119.294 34.7964 119.16 33.863 119.16 32.8097V27.0297C119.16 25.923 119.294 24.963 119.56 24.1497C119.827 23.3364 120.294 22.7097 120.96 22.2697C121.64 21.8297 122.574 21.6097 123.76 21.6097C124.88 21.6097 125.754 21.803 126.38 22.1897C127.02 22.563 127.474 23.103 127.74 23.8097C128.007 24.5164 128.14 25.3364 128.14 26.2697V27.6297H125.3V26.2297C125.3 25.7764 125.274 25.363 125.22 24.9897C125.18 24.6164 125.054 24.323 124.84 24.1097C124.64 23.883 124.287 23.7697 123.78 23.7697C123.274 23.7697 122.9 23.8897 122.66 24.1297C122.434 24.3564 122.287 24.6697 122.22 25.0697C122.154 25.4564 122.12 25.8964 122.12 26.3897V33.4297C122.12 34.0164 122.167 34.503 122.26 34.8897C122.354 35.263 122.52 35.5497 122.76 35.7497C123.014 35.9364 123.354 36.0297 123.78 36.0297C124.274 36.0297 124.62 35.9164 124.82 35.6897C125.034 35.4497 125.167 35.1364 125.22 34.7497C125.274 34.363 125.3 33.9297 125.3 33.4497V31.9897H128.14V33.2897C128.14 34.2497 128.014 35.103 127.76 35.8497C127.507 36.583 127.06 37.163 126.42 37.5897C125.794 38.003 124.907 38.2097 123.76 38.2097ZM132.021 37.9897V23.9697H129.441V21.7897H137.521V23.9697H134.981V37.9897H132.021ZM139.195 37.9897V21.7897H145.995V23.8697H142.155V28.5297H145.175V30.5897H142.155V35.9497H146.035V37.9897H139.195ZM147.949 37.9897V21.7897H152.709C153.683 21.7897 154.469 21.9697 155.069 22.3297C155.683 22.6897 156.129 23.2164 156.409 23.9097C156.703 24.5897 156.849 25.4164 156.849 26.3897C156.849 27.443 156.669 28.2964 156.309 28.9497C155.949 29.5897 155.443 30.0564 154.789 30.3497C154.149 30.643 153.389 30.7897 152.509 30.7897H150.909V37.9897H147.949ZM150.909 28.7097H152.029C152.563 28.7097 152.976 28.6364 153.269 28.4897C153.576 28.3297 153.783 28.083 153.889 27.7497C154.009 27.403 154.069 26.943 154.069 26.3697C154.069 25.783 154.023 25.3097 153.929 24.9497C153.849 24.5764 153.663 24.303 153.369 24.1297C153.089 23.9564 152.643 23.8697 152.029 23.8697H150.909V28.7097ZM163.056 38.2097C161.87 38.2097 160.936 37.9764 160.256 37.5097C159.59 37.043 159.123 36.4097 158.856 35.6097C158.59 34.7964 158.456 33.863 158.456 32.8097V27.0297C158.456 25.923 158.59 24.963 158.856 24.1497C159.123 23.3364 159.59 22.7097 160.256 22.2697C160.936 21.8297 161.87 21.6097 163.056 21.6097C164.176 21.6097 165.05 21.803 165.676 22.1897C166.316 22.563 166.77 23.103 167.036 23.8097C167.303 24.5164 167.436 25.3364 167.436 26.2697V27.6297H164.596V26.2297C164.596 25.7764 164.57 25.363 164.516 24.9897C164.476 24.6164 164.35 24.323 164.136 24.1097C163.936 23.883 163.583 23.7697 163.076 23.7697C162.57 23.7697 162.196 23.8897 161.956 24.1297C161.73 24.3564 161.583 24.6697 161.516 25.0697C161.45 25.4564 161.416 25.8964 161.416 26.3897V33.4297C161.416 34.0164 161.463 34.503 161.556 34.8897C161.65 35.263 161.816 35.5497 162.056 35.7497C162.31 35.9364 162.65 36.0297 163.076 36.0297C163.57 36.0297 163.916 35.9164 164.116 35.6897C164.33 35.4497 164.463 35.1364 164.516 34.7497C164.57 34.363 164.596 33.9297 164.596 33.4497V31.9897H167.436V33.2897C167.436 34.2497 167.31 35.103 167.056 35.8497C166.803 36.583 166.356 37.163 165.716 37.5897C165.09 38.003 164.203 38.2097 163.056 38.2097ZM169.737 37.9897V21.7897H172.677V28.5897H173.277L175.897 21.7897H178.837L175.757 29.4297L179.077 37.9897H176.077L173.277 30.5297H172.677V37.9897H169.737ZM179.897 37.9897L183.137 21.7897H186.297L189.537 37.9897H186.797L186.157 34.2497H183.337L182.677 37.9897H179.897ZM183.637 32.3697H185.837L184.737 25.5697L183.637 32.3697ZM190.367 37.9897L193.607 30.7497C192.94 30.403 192.4 29.8697 191.987 29.1497C191.573 28.4164 191.367 27.5164 191.367 26.4497C191.367 25.383 191.56 24.5097 191.947 23.8297C192.333 23.1364 192.913 22.623 193.687 22.2897C194.473 21.9564 195.467 21.7897 196.667 21.7897H200.407V37.9897H197.467V31.4297H196.527C196.5 31.4297 196.44 31.4297 196.347 31.4297C196.253 31.4297 196.193 31.4297 196.167 31.4297L193.587 37.9897H190.367ZM196.807 29.3497H197.467V23.8497H196.747C195.88 23.8497 195.227 24.063 194.787 24.4897C194.347 24.903 194.127 25.5564 194.127 26.4497C194.127 27.3697 194.32 28.083 194.707 28.5897C195.107 29.0964 195.807 29.3497 196.807 29.3497Z" fill="#2D2D2D"/>
<path d="M95.165 55.7656V39.5656H102.025V41.7456H98.105V55.7656H95.165ZM103.84 55.7656V39.5656H108.6C109.574 39.5656 110.36 39.7456 110.96 40.1056C111.574 40.4656 112.02 40.9923 112.3 41.6856C112.594 42.3656 112.74 43.1923 112.74 44.1656C112.74 45.219 112.56 46.0723 112.2 46.7256C111.84 47.3656 111.334 47.8323 110.68 48.1256C110.04 48.419 109.28 48.5656 108.4 48.5656H106.8V55.7656H103.84ZM106.8 46.4856H107.92C108.454 46.4856 108.867 46.4123 109.16 46.2656C109.467 46.1056 109.674 45.859 109.78 45.5256C109.9 45.179 109.96 44.719 109.96 44.1456C109.96 43.559 109.914 43.0856 109.82 42.7256C109.74 42.3523 109.554 42.079 109.26 41.9056C108.98 41.7323 108.534 41.6456 107.92 41.6456H106.8V46.4856ZM113.474 55.7656L116.714 39.5656H119.874L123.114 55.7656H120.374L119.734 52.0256H116.914L116.254 55.7656H113.474ZM117.214 50.1456H119.414L118.314 43.3456L117.214 50.1456ZM124.944 55.7656V39.5656H128.924C129.644 39.5656 130.29 39.6323 130.864 39.7656C131.45 39.899 131.95 40.1256 132.364 40.4456C132.79 40.7523 133.117 41.1723 133.344 41.7056C133.57 42.239 133.684 42.9123 133.684 43.7256C133.684 44.379 133.59 44.939 133.404 45.4056C133.23 45.8723 132.97 46.2456 132.624 46.5256C132.277 46.7923 131.844 46.9723 131.324 47.0656C131.964 47.1723 132.49 47.399 132.904 47.7456C133.33 48.079 133.644 48.519 133.844 49.0656C134.057 49.6123 134.164 50.2723 134.164 51.0456C134.164 51.819 134.064 52.5056 133.864 53.1056C133.677 53.6923 133.39 54.1856 133.004 54.5856C132.63 54.9723 132.157 55.2656 131.584 55.4656C131.024 55.6656 130.364 55.7656 129.604 55.7656H124.944ZM127.904 53.6856H129.024C129.917 53.6856 130.524 53.4723 130.844 53.0456C131.164 52.6056 131.324 51.9323 131.324 51.0256C131.324 50.3723 131.244 49.8456 131.084 49.4456C130.937 49.0323 130.684 48.7256 130.324 48.5256C129.977 48.3256 129.51 48.2256 128.924 48.2256H127.904V53.6856ZM127.904 46.1856H128.904C129.49 46.1856 129.944 46.099 130.264 45.9256C130.584 45.7523 130.804 45.4856 130.924 45.1256C131.057 44.7656 131.124 44.3123 131.124 43.7656C131.124 43.1923 131.024 42.7523 130.824 42.4456C130.637 42.1256 130.35 41.9123 129.964 41.8056C129.577 41.6856 129.084 41.6256 128.484 41.6256H127.904V46.1856ZM136.316 55.7656V39.5656H138.736V49.7856L143.176 39.5656H145.156V55.7656H142.716V45.3856L138.256 55.7656H136.316ZM147.844 55.7656V39.5656H152.604C153.577 39.5656 154.364 39.7456 154.964 40.1056C155.577 40.4656 156.024 40.9923 156.304 41.6856C156.597 42.3656 156.744 43.1923 156.744 44.1656C156.744 45.219 156.564 46.0723 156.204 46.7256C155.844 47.3656 155.337 47.8323 154.684 48.1256C154.044 48.419 153.284 48.5656 152.404 48.5656H150.804V55.7656H147.844ZM150.804 46.4856H151.924C152.457 46.4856 152.87 46.4123 153.164 46.2656C153.47 46.1056 153.677 45.859 153.784 45.5256C153.904 45.179 153.964 44.719 153.964 44.1456C153.964 43.559 153.917 43.0856 153.824 42.7256C153.744 42.3523 153.557 42.079 153.264 41.9056C152.984 41.7323 152.537 41.6456 151.924 41.6456H150.804V46.4856ZM162.99 55.9856C161.844 55.9856 160.93 55.7723 160.25 55.3456C159.57 54.919 159.084 54.3056 158.79 53.5056C158.497 52.7056 158.35 51.759 158.35 50.6656V44.6056C158.35 43.5123 158.497 42.579 158.79 41.8056C159.084 41.019 159.57 40.419 160.25 40.0056C160.93 39.5923 161.844 39.3856 162.99 39.3856C164.164 39.3856 165.084 39.5923 165.75 40.0056C166.43 40.419 166.917 41.019 167.21 41.8056C167.517 42.579 167.67 43.5123 167.67 44.6056V50.6856C167.67 51.7656 167.517 52.7056 167.21 53.5056C166.917 54.2923 166.43 54.9056 165.75 55.3456C165.084 55.7723 164.164 55.9856 162.99 55.9856ZM162.99 53.8056C163.484 53.8056 163.844 53.699 164.07 53.4856C164.31 53.2723 164.47 52.979 164.55 52.6056C164.63 52.2323 164.67 51.8256 164.67 51.3856V43.9256C164.67 43.4723 164.63 43.0656 164.55 42.7056C164.47 42.3456 164.31 42.0656 164.07 41.8656C163.844 41.6523 163.484 41.5456 162.99 41.5456C162.524 41.5456 162.17 41.6523 161.93 41.8656C161.69 42.0656 161.53 42.3456 161.45 42.7056C161.37 43.0656 161.33 43.4723 161.33 43.9256V51.3856C161.33 51.8256 161.364 52.2323 161.43 52.6056C161.51 52.979 161.67 53.2723 161.91 53.4856C162.15 53.699 162.51 53.8056 162.99 53.8056ZM170.06 55.7656V39.5656H174.04C174.76 39.5656 175.407 39.6323 175.98 39.7656C176.567 39.899 177.067 40.1256 177.48 40.4456C177.907 40.7523 178.233 41.1723 178.46 41.7056C178.687 42.239 178.8 42.9123 178.8 43.7256C178.8 44.379 178.707 44.939 178.52 45.4056C178.347 45.8723 178.087 46.2456 177.74 46.5256C177.393 46.7923 176.96 46.9723 176.44 47.0656C177.08 47.1723 177.607 47.399 178.02 47.7456C178.447 48.079 178.76 48.519 178.96 49.0656C179.173 49.6123 179.28 50.2723 179.28 51.0456C179.28 51.819 179.18 52.5056 178.98 53.1056C178.793 53.6923 178.507 54.1856 178.12 54.5856C177.747 54.9723 177.273 55.2656 176.7 55.4656C176.14 55.6656 175.48 55.7656 174.72 55.7656H170.06ZM173.02 53.6856H174.14C175.033 53.6856 175.64 53.4723 175.96 53.0456C176.28 52.6056 176.44 51.9323 176.44 51.0256C176.44 50.3723 176.36 49.8456 176.2 49.4456C176.053 49.0323 175.8 48.7256 175.44 48.5256C175.093 48.3256 174.627 48.2256 174.04 48.2256H173.02V53.6856ZM173.02 46.1856H174.02C174.607 46.1856 175.06 46.099 175.38 45.9256C175.7 45.7523 175.92 45.4856 176.04 45.1256C176.173 44.7656 176.24 44.3123 176.24 43.7656C176.24 43.1923 176.14 42.7523 175.94 42.4456C175.753 42.1256 175.467 41.9123 175.08 41.8056C174.693 41.6856 174.2 41.6256 173.6 41.6256H173.02V46.1856ZM181.433 55.7656V39.5656H184.373V46.3656H184.973L187.593 39.5656H190.533L187.453 47.2056L190.773 55.7656H187.773L184.973 48.3056H184.373V55.7656H181.433ZM192.453 55.7656V39.5656H194.873V49.7856L199.313 39.5656H201.293V55.7656H198.853V45.3856L194.393 55.7656H192.453Z" fill="#2D2D2D"/>
<path d="M41.2197 80.4353V16.6353H47.6709V80.4353H41.2197Z" fill="#2D2D2D"/>
<path d="M77.015 19.8609H41.2197V13.4097H77.015V19.8609Z" fill="#2D2D2D"/>
<path d="M73.79 26.1309C72.0085 26.1309 70.5645 24.6868 70.5645 22.9053V13.5908H77.0156V22.9053C77.0156 24.6868 75.5715 26.1309 73.79 26.1309Z" fill="#2D2D2D"/>
<path d="M37.2051 76.8939C37.2051 74.938 38.7907 73.3525 40.7465 73.3525H49.7453V80.4353H40.7465C38.7906 80.4353 37.2051 78.8497 37.2051 76.8939Z" fill="#2D2D2D"/>
<path d="M37.9942 13.1313C36.2127 13.1313 34.7686 11.6871 34.7686 9.90564V0.591064H41.2198V9.90564C41.2198 11.6871 39.7756 13.1313 37.9942 13.1313Z" fill="#2D2D2D"/>
<path d="M41.2202 0.543213H23.7087C11.0424 0.543213 0.774414 10.8112 0.774414 23.4775C0.774414 36.1437 11.0424 46.4117 23.7087 46.4117H41.2202V39.1045H23.7087C15.0781 39.1045 8.08158 32.1081 8.08158 23.4775C8.08158 14.8469 15.0781 7.85038 23.7087 7.85038H41.2202V0.543213Z" fill="#2D2D2D"/>
<path d="M44.4453 80.4353H65.1587C76.5983 80.4353 85.872 71.1616 85.872 59.722C85.872 48.2823 76.5983 39.0086 65.1587 39.0086H44.4453V46.3158H65.1587C72.5627 46.3158 78.5648 52.318 78.5648 59.722C78.5648 67.126 72.5627 73.1281 65.1587 73.1281H44.4453V80.4353Z" fill="#2D2D2D"/>
</g>
<defs>
<clipPath id="clip0_701_962">
<rect width="202" height="81" fill="white"/>
</clipPath>
</defs>
</svg>
