<svg width="214" height="60" viewBox="0 0 214 60" fill="none" xmlns="http://www.w3.org/2000/svg">
<path fill-rule="evenodd" clip-rule="evenodd" d="M36.4466 0.611389H35.4466V1.61139V1.79629C34.4818 1.6574 33.4481 1.58356 32.3415 1.58356C29.2151 1.58356 26.6254 2.17222 24.4977 3.14733C22.449 2.17049 19.9085 1.58356 16.7886 1.58356C10.2613 1.58356 6.35628 4.15293 4.13088 7.48423C1.95079 10.7477 1.46783 14.612 1.4679 17.1333V17.1888L1.47403 17.2439C1.70833 19.3504 2.48665 22.5788 4.75616 25.3424C7.05705 28.1443 10.8064 30.3639 16.7585 30.543C22.1625 30.7056 25.4337 32.8214 27.3754 35.3146C29.349 37.8489 30.0083 40.8528 30.0083 42.8096V42.8516L30.0118 42.8935C30.2212 45.381 29.7936 49.1086 27.882 52.1768C27.0608 53.4948 25.9554 54.7098 24.4751 55.6579C22.8931 54.7008 21.6648 53.4697 20.7161 52.1282C18.8759 49.5261 18.0604 46.4638 17.8479 44.0791H18.1505C18.7028 44.0791 19.1505 43.6314 19.1505 43.0791C19.1505 42.5268 18.7028 42.0791 18.1505 42.0791L1.23632 42.0792C0.777441 42.0792 0.390753 42.3882 0.273084 42.8096H0.236328C0.236328 42.8798 0.236843 42.9509 0.237886 43.0229C0.236852 43.0415 0.236328 43.0603 0.236328 43.0792C0.236328 43.1115 0.237859 43.1434 0.240852 43.1749C0.308982 45.96 1.15773 49.9281 3.53033 53.283C6.04539 56.8393 10.2342 59.6432 16.7886 59.6432C19.9114 59.6432 22.4518 59.006 24.4984 57.9502C26.6241 59.0045 29.2134 59.6432 32.3415 59.6432C33.848 59.6432 35.219 59.4949 36.4643 59.2228H60.4394C63.2872 59.2228 66.737 57.4796 69.4343 54.8573C72.1543 52.2129 74.2925 48.4996 74.2925 44.3421C74.2925 40.1395 71.9327 36.6469 69.1407 34.1401C67.271 32.4615 65.1406 31.1626 63.2347 30.3397C65.1303 29.3671 67.2737 27.942 69.1608 26.1518C71.9373 23.5179 74.2925 19.9619 74.2925 15.7643C74.2925 11.6008 72.0858 7.82168 69.3454 5.11815C66.6326 2.44192 63.1806 0.611389 60.4394 0.611389H36.4466ZM2.29504 44.0792L15.8411 44.0791C16.0546 46.7778 16.9571 50.2766 19.0832 53.283C19.9755 54.5447 21.0784 55.7116 22.4229 56.6923C20.8687 57.2915 19.0098 57.6432 16.7886 57.6432C10.9012 57.6432 7.31387 55.1692 5.16324 52.1282C3.32307 49.5262 2.50755 46.4638 2.29504 44.0792ZM41.2894 57.2228H60.4394C62.5815 57.2228 65.5583 55.8361 68.0401 53.4233C70.4992 51.0326 72.2925 47.8055 72.2925 44.3421C72.2925 40.924 70.368 37.9299 67.8045 35.6283C65.2801 33.3618 62.2808 31.9015 60.3313 31.4615H41.7925C42.8653 32.2395 43.7631 33.1316 44.5062 34.0857C46.7845 37.0112 47.5518 40.4451 47.561 42.7673C47.7878 45.5575 47.3203 49.7227 45.1323 53.2344C44.1847 54.7554 42.9244 56.1359 41.2894 57.2228ZM37.5182 31.4615C39.9746 32.3397 41.7122 33.7532 42.9282 35.3146C44.9019 37.8489 45.5611 40.8528 45.5611 42.8096V42.8516L45.5647 42.8934C45.774 45.381 45.3464 49.1086 43.4349 52.1768C42.1931 54.1698 40.3014 55.9273 37.4466 56.8826V31.4615H37.5182ZM35.4466 30.8904V57.3858C34.4996 57.5529 33.467 57.6432 32.3415 57.6432C30.0789 57.6432 28.1559 57.2778 26.5237 56.6552C27.7833 55.6715 28.7899 54.5017 29.5795 53.2344C31.7674 49.7227 32.235 45.5575 32.0082 42.7673C31.999 40.4451 31.2317 37.0112 28.9533 34.0857C26.629 31.1012 22.7904 28.7236 16.8187 28.5439C11.3951 28.3807 8.20626 26.3923 6.30177 24.0731C4.38458 21.7386 3.68522 18.9644 3.46799 17.0777C3.47517 14.7506 3.939 11.3719 5.79393 8.59519C7.61839 5.86409 10.8738 3.58356 16.7886 3.58356C18.945 3.58356 20.7593 3.88671 22.2841 4.40422C21.0162 5.28103 19.9659 6.31351 19.1067 7.42979C16.6134 10.6694 15.7886 14.5342 15.7886 17.1333V17.1888L15.7948 17.2439C16.0387 19.4368 17.1655 22.6613 19.7377 25.3933C22.3356 28.1527 26.3664 30.3642 32.3114 30.5431C33.4484 30.5773 34.4909 30.698 35.4466 30.8904ZM37.8523 29.4615C37.7187 29.4171 37.5835 29.3741 37.4466 29.3326V17.9258H46.613C47.1652 17.9258 47.613 17.4781 47.613 16.9258C47.613 16.8572 47.6061 16.7903 47.5929 16.7255C47.7296 14.1499 47.1896 10.5436 45.1115 7.47856C43.7185 5.42405 41.6661 3.66076 38.7666 2.61139H60.4394C62.4371 2.61139 65.4117 4.0469 67.9408 6.54192C70.4422 9.00962 72.2925 12.3069 72.2925 15.7643C72.2925 19.1874 70.3634 22.2542 67.7844 24.7008C65.2748 27.0815 62.2763 28.7503 60.271 29.4615H37.8523ZM45.613 15.9258H37.4466V4.2784C40.3258 5.15811 42.2216 6.7802 43.4561 8.60093C45.0587 10.9647 45.6073 13.7558 45.613 15.9258ZM35.4466 15.9258V3.8188C34.4998 3.66619 33.4673 3.58356 32.3415 3.58356C30.1384 3.58356 28.258 3.90044 26.655 4.44134C27.84 5.32091 28.7977 6.35627 29.5586 7.47853C31.4295 10.2379 32.0538 13.4361 32.0599 15.9258H35.4466ZM30.0602 15.9258C30.0545 13.7558 29.5059 10.9647 27.9032 8.60089C27.0837 7.39216 25.9727 6.27098 24.476 5.39643C22.8764 6.27958 21.6406 7.41665 20.6917 8.64963C18.537 11.4491 17.8007 14.8263 17.7888 17.0774C18.0023 18.8804 18.9672 21.6574 21.1938 24.0223C23.4174 26.384 26.9409 28.3806 32.3716 28.544C33.4671 28.577 34.4908 28.6839 35.4466 28.855V17.9258H29.7377C29.1854 17.9258 28.7376 17.4781 28.7376 16.9258C28.7376 16.3736 29.1854 15.9258 29.7376 15.9258H30.0602ZM51.9725 19.2226V12.8149C53.1793 12.8184 54.7255 12.8667 56.0963 13.2154C56.9849 13.4414 57.7017 13.7719 58.1844 14.2178C58.6103 14.6114 58.896 15.1305 58.9249 15.8949C58.896 16.665 58.6093 17.2071 58.1749 17.6271C57.6875 18.0982 56.9682 18.456 56.084 18.7111C54.7243 19.1033 53.177 19.1992 51.9725 19.2226ZM59.5416 12.7488C60.3449 13.491 60.8594 14.4921 60.9211 15.7643H60.9274C60.9274 15.8081 60.9269 15.8516 60.9258 15.8948C60.9269 15.9378 60.9274 15.9812 60.9274 16.0248H60.9212C60.8601 17.2945 60.3525 18.3038 59.5649 19.0651C58.7529 19.85 57.6892 20.3295 56.6384 20.6327C54.567 21.2303 52.2145 21.2302 51.0072 21.2301H50.9725H49.9725V20.2301V11.817V10.817H50.9725C51.0833 10.817 51.2059 10.8164 51.3388 10.8156C52.5731 10.8088 54.7018 10.797 56.5893 11.2771C57.6418 11.5448 58.7172 11.9871 59.5416 12.7488ZM51.6007 43.433V41.1407C52.7673 41.1613 54.1562 41.2429 55.4188 41.5385C56.3996 41.7681 57.203 42.1061 57.7454 42.5647C58.223 42.9685 58.5225 43.4814 58.5531 44.2162C58.5232 44.9842 58.2369 45.5252 57.8031 45.9444C57.3158 46.4155 56.5964 46.7733 55.7123 47.0284C54.3526 47.4207 52.8053 47.5165 51.6007 47.5399V43.433ZM59.0367 41.0374C59.9032 41.77 60.481 42.7784 60.5489 44.0816H60.5556C60.5556 44.101 60.5555 44.1204 60.5553 44.1397C60.5551 44.1647 60.5546 44.1896 60.554 44.2145C60.5546 44.2383 60.5551 44.2622 60.5553 44.2862C60.5555 44.3048 60.5556 44.3235 60.5556 44.3421H60.5494C60.4884 45.6118 59.9808 46.6211 59.1932 47.3824C58.3812 48.1673 57.3175 48.6469 56.2667 48.95C54.1953 49.5476 51.8428 49.5475 50.6354 49.5474H50.6007H49.6007V48.5474V43.433V39.1796H49.9154V39.1369C50.0288 39.1369 50.1551 39.1362 50.2929 39.1355C51.5751 39.1286 53.8476 39.1166 55.8747 39.5911C57.0003 39.8546 58.1513 40.2888 59.0367 41.0374Z" fill="#2D2D2D"/>
<path d="M106.591 54.6273H210.56" stroke="#2D2D2D" stroke-width="3" stroke-linecap="round"/>
<path d="M106.472 29.6273L106.752 13.4273H109.812L112.112 24.6473L114.512 13.4273H117.472L117.772 29.6273H115.572L115.332 18.3673L113.032 29.6273H111.252L108.912 18.3273L108.692 29.6273H106.472ZM119.545 29.6273L122.785 13.4273H125.945L129.185 29.6273H126.445L125.805 25.8873H122.985L122.325 29.6273H119.545ZM123.285 24.0073H125.485L124.385 17.2073L123.285 24.0073ZM135.374 29.8473C134.187 29.8473 133.254 29.614 132.574 29.1473C131.907 28.6807 131.441 28.0473 131.174 27.2473C130.907 26.434 130.774 25.5007 130.774 24.4473V18.6673C130.774 17.5607 130.907 16.6007 131.174 15.7873C131.441 14.974 131.907 14.3473 132.574 13.9073C133.254 13.4673 134.187 13.2473 135.374 13.2473C136.494 13.2473 137.367 13.4407 137.994 13.8273C138.634 14.2007 139.087 14.7407 139.354 15.4473C139.621 16.154 139.754 16.974 139.754 17.9073V19.2673H136.914V17.8673C136.914 17.414 136.887 17.0007 136.834 16.6273C136.794 16.254 136.667 15.9607 136.454 15.7473C136.254 15.5207 135.901 15.4073 135.394 15.4073C134.887 15.4073 134.514 15.5273 134.274 15.7673C134.047 15.994 133.901 16.3073 133.834 16.7073C133.767 17.094 133.734 17.534 133.734 18.0273V25.0673C133.734 25.654 133.781 26.1407 133.874 26.5273C133.967 26.9007 134.134 27.1873 134.374 27.3873C134.627 27.574 134.967 27.6673 135.394 27.6673C135.887 27.6673 136.234 27.554 136.434 27.3273C136.647 27.0873 136.781 26.774 136.834 26.3873C136.887 26.0007 136.914 25.5673 136.914 25.0873V23.6273H139.754V24.9273C139.754 25.8873 139.627 26.7407 139.374 27.4873C139.121 28.2207 138.674 28.8007 138.034 29.2273C137.407 29.6407 136.521 29.8473 135.374 29.8473ZM143.635 29.6273V15.6073H141.055V13.4273H149.135V15.6073H146.595V29.6273H143.635ZM150.809 29.6273V13.4273H157.609V15.5073H153.769V20.1673H156.789V22.2273H153.769V27.5873H157.649V29.6273H150.809ZM159.563 29.6273V13.4273H164.323C165.297 13.4273 166.083 13.6073 166.683 13.9673C167.297 14.3273 167.743 14.854 168.023 15.5473C168.317 16.2273 168.463 17.054 168.463 18.0273C168.463 19.0807 168.283 19.934 167.923 20.5873C167.563 21.2273 167.057 21.694 166.403 21.9873C165.763 22.2807 165.003 22.4273 164.123 22.4273H162.523V29.6273H159.563ZM162.523 20.3473H163.643C164.177 20.3473 164.59 20.274 164.883 20.1273C165.19 19.9673 165.397 19.7207 165.503 19.3873C165.623 19.0407 165.683 18.5807 165.683 18.0073C165.683 17.4207 165.637 16.9473 165.543 16.5873C165.463 16.214 165.277 15.9407 164.983 15.7673C164.703 15.594 164.257 15.5073 163.643 15.5073H162.523V20.3473ZM174.67 29.8473C173.483 29.8473 172.55 29.614 171.87 29.1473C171.203 28.6807 170.737 28.0473 170.47 27.2473C170.203 26.434 170.07 25.5007 170.07 24.4473V18.6673C170.07 17.5607 170.203 16.6007 170.47 15.7873C170.737 14.974 171.203 14.3473 171.87 13.9073C172.55 13.4673 173.483 13.2473 174.67 13.2473C175.79 13.2473 176.663 13.4407 177.29 13.8273C177.93 14.2007 178.383 14.7407 178.65 15.4473C178.917 16.154 179.05 16.974 179.05 17.9073V19.2673H176.21V17.8673C176.21 17.414 176.183 17.0007 176.13 16.6273C176.09 16.254 175.963 15.9607 175.75 15.7473C175.55 15.5207 175.197 15.4073 174.69 15.4073C174.183 15.4073 173.81 15.5273 173.57 15.7673C173.343 15.994 173.197 16.3073 173.13 16.7073C173.063 17.094 173.03 17.534 173.03 18.0273V25.0673C173.03 25.654 173.077 26.1407 173.17 26.5273C173.263 26.9007 173.43 27.1873 173.67 27.3873C173.923 27.574 174.263 27.6673 174.69 27.6673C175.183 27.6673 175.53 27.554 175.73 27.3273C175.943 27.0873 176.077 26.774 176.13 26.3873C176.183 26.0007 176.21 25.5673 176.21 25.0873V23.6273H179.05V24.9273C179.05 25.8873 178.923 26.7407 178.67 27.4873C178.417 28.2207 177.97 28.8007 177.33 29.2273C176.703 29.6407 175.817 29.8473 174.67 29.8473ZM181.351 29.6273V13.4273H184.291V20.2273H184.891L187.511 13.4273H190.451L187.371 21.0673L190.691 29.6273H187.691L184.891 22.1673H184.291V29.6273H181.351ZM191.511 29.6273L194.751 13.4273H197.911L201.151 29.6273H198.411L197.771 25.8873H194.951L194.291 29.6273H191.511ZM195.251 24.0073H197.451L196.351 17.2073L195.251 24.0073ZM201.98 29.6273L205.22 22.3873C204.554 22.0407 204.014 21.5073 203.6 20.7873C203.187 20.054 202.98 19.154 202.98 18.0873C202.98 17.0207 203.174 16.1473 203.56 15.4673C203.947 14.774 204.527 14.2607 205.3 13.9273C206.087 13.594 207.08 13.4273 208.28 13.4273H212.02V29.6273H209.08V23.0673H208.14C208.114 23.0673 208.054 23.0673 207.96 23.0673C207.867 23.0673 207.807 23.0673 207.78 23.0673L205.2 29.6273H201.98ZM208.42 20.9873H209.08V15.4873H208.36C207.494 15.4873 206.84 15.7007 206.4 16.1273C205.96 16.5407 205.74 17.194 205.74 18.0873C205.74 19.0073 205.934 19.7207 206.32 20.2273C206.72 20.734 207.42 20.9873 208.42 20.9873Z" fill="#2D2D2D"/>
<path d="M105.725 48.6273V32.4273H112.585V34.6073H108.665V48.6273H105.725ZM114.4 48.6273V32.4273H119.16C120.134 32.4273 120.92 32.6073 121.52 32.9673C122.134 33.3273 122.58 33.854 122.86 34.5473C123.154 35.2273 123.3 36.054 123.3 37.0273C123.3 38.0807 123.12 38.934 122.76 39.5873C122.4 40.2273 121.894 40.694 121.24 40.9873C120.6 41.2807 119.84 41.4273 118.96 41.4273H117.36V48.6273H114.4ZM117.36 39.3473H118.48C119.014 39.3473 119.427 39.274 119.72 39.1273C120.027 38.9673 120.234 38.7207 120.34 38.3873C120.46 38.0407 120.52 37.5807 120.52 37.0073C120.52 36.4207 120.474 35.9473 120.38 35.5873C120.3 35.214 120.114 34.9407 119.82 34.7673C119.54 34.594 119.094 34.5073 118.48 34.5073H117.36V39.3473ZM124.034 48.6273L127.274 32.4273H130.434L133.674 48.6273H130.934L130.294 44.8873H127.474L126.814 48.6273H124.034ZM127.774 43.0073H129.974L128.874 36.2073L127.774 43.0073ZM135.503 48.6273V32.4273H139.483C140.203 32.4273 140.85 32.494 141.423 32.6273C142.01 32.7607 142.51 32.9873 142.923 33.3073C143.35 33.614 143.677 34.034 143.903 34.5673C144.13 35.1007 144.243 35.774 144.243 36.5873C144.243 37.2407 144.15 37.8007 143.963 38.2673C143.79 38.734 143.53 39.1073 143.183 39.3873C142.837 39.654 142.403 39.834 141.883 39.9273C142.523 40.034 143.05 40.2607 143.463 40.6073C143.89 40.9407 144.203 41.3807 144.403 41.9273C144.617 42.474 144.723 43.134 144.723 43.9073C144.723 44.6807 144.623 45.3673 144.423 45.9673C144.237 46.554 143.95 47.0473 143.563 47.4473C143.19 47.834 142.717 48.1273 142.143 48.3273C141.583 48.5273 140.923 48.6273 140.163 48.6273H135.503ZM138.463 46.5473H139.583C140.477 46.5473 141.083 46.334 141.403 45.9073C141.723 45.4673 141.883 44.794 141.883 43.8873C141.883 43.234 141.803 42.7073 141.643 42.3073C141.497 41.894 141.243 41.5873 140.883 41.3873C140.537 41.1873 140.07 41.0873 139.483 41.0873H138.463V46.5473ZM138.463 39.0473H139.463C140.05 39.0473 140.503 38.9607 140.823 38.7873C141.143 38.614 141.363 38.3473 141.483 37.9873C141.617 37.6273 141.683 37.174 141.683 36.6273C141.683 36.054 141.583 35.614 141.383 35.3073C141.197 34.9873 140.91 34.774 140.523 34.6673C140.137 34.5473 139.643 34.4873 139.043 34.4873H138.463V39.0473ZM146.876 48.6273V32.4273H149.296V42.6473L153.736 32.4273H155.716V48.6273H153.276V38.2473L148.816 48.6273H146.876ZM158.403 48.6273V32.4273H163.163C164.137 32.4273 164.923 32.6073 165.523 32.9673C166.137 33.3273 166.583 33.854 166.863 34.5473C167.157 35.2273 167.303 36.054 167.303 37.0273C167.303 38.0807 167.123 38.934 166.763 39.5873C166.403 40.2273 165.897 40.694 165.243 40.9873C164.603 41.2807 163.843 41.4273 162.963 41.4273H161.363V48.6273H158.403ZM161.363 39.3473H162.483C163.017 39.3473 163.43 39.274 163.723 39.1273C164.03 38.9673 164.237 38.7207 164.343 38.3873C164.463 38.0407 164.523 37.5807 164.523 37.0073C164.523 36.4207 164.477 35.9473 164.383 35.5873C164.303 35.214 164.117 34.9407 163.823 34.7673C163.543 34.594 163.097 34.5073 162.483 34.5073H161.363V39.3473ZM173.55 48.8473C172.404 48.8473 171.49 48.634 170.81 48.2073C170.13 47.7807 169.644 47.1673 169.35 46.3673C169.057 45.5673 168.91 44.6207 168.91 43.5273V37.4673C168.91 36.374 169.057 35.4407 169.35 34.6673C169.644 33.8807 170.13 33.2807 170.81 32.8673C171.49 32.454 172.404 32.2473 173.55 32.2473C174.724 32.2473 175.644 32.454 176.31 32.8673C176.99 33.2807 177.477 33.8807 177.77 34.6673C178.077 35.4407 178.23 36.374 178.23 37.4673V43.5473C178.23 44.6273 178.077 45.5673 177.77 46.3673C177.477 47.154 176.99 47.7673 176.31 48.2073C175.644 48.634 174.724 48.8473 173.55 48.8473ZM173.55 46.6673C174.044 46.6673 174.404 46.5607 174.63 46.3473C174.87 46.134 175.03 45.8407 175.11 45.4673C175.19 45.094 175.23 44.6873 175.23 44.2473V36.7873C175.23 36.334 175.19 35.9273 175.11 35.5673C175.03 35.2073 174.87 34.9273 174.63 34.7273C174.404 34.514 174.044 34.4073 173.55 34.4073C173.084 34.4073 172.73 34.514 172.49 34.7273C172.25 34.9273 172.09 35.2073 172.01 35.5673C171.93 35.9273 171.89 36.334 171.89 36.7873V44.2473C171.89 44.6873 171.924 45.094 171.99 45.4673C172.07 45.8407 172.23 46.134 172.47 46.3473C172.71 46.5607 173.07 46.6673 173.55 46.6673ZM180.62 48.6273V32.4273H184.6C185.32 32.4273 185.967 32.494 186.54 32.6273C187.127 32.7607 187.627 32.9873 188.04 33.3073C188.467 33.614 188.793 34.034 189.02 34.5673C189.247 35.1007 189.36 35.774 189.36 36.5873C189.36 37.2407 189.267 37.8007 189.08 38.2673C188.907 38.734 188.647 39.1073 188.3 39.3873C187.953 39.654 187.52 39.834 187 39.9273C187.64 40.034 188.167 40.2607 188.58 40.6073C189.007 40.9407 189.32 41.3807 189.52 41.9273C189.733 42.474 189.84 43.134 189.84 43.9073C189.84 44.6807 189.74 45.3673 189.54 45.9673C189.353 46.554 189.067 47.0473 188.68 47.4473C188.307 47.834 187.833 48.1273 187.26 48.3273C186.7 48.5273 186.04 48.6273 185.28 48.6273H180.62ZM183.58 46.5473H184.7C185.593 46.5473 186.2 46.334 186.52 45.9073C186.84 45.4673 187 44.794 187 43.8873C187 43.234 186.92 42.7073 186.76 42.3073C186.613 41.894 186.36 41.5873 186 41.3873C185.653 41.1873 185.187 41.0873 184.6 41.0873H183.58V46.5473ZM183.58 39.0473H184.58C185.167 39.0473 185.62 38.9607 185.94 38.7873C186.26 38.614 186.48 38.3473 186.6 37.9873C186.733 37.6273 186.8 37.174 186.8 36.6273C186.8 36.054 186.7 35.614 186.5 35.3073C186.313 34.9873 186.027 34.774 185.64 34.6673C185.253 34.5473 184.76 34.4873 184.16 34.4873H183.58V39.0473ZM191.993 48.6273V32.4273H194.933V39.2273H195.533L198.153 32.4273H201.093L198.013 40.0673L201.333 48.6273H198.333L195.533 41.1673H194.933V48.6273H191.993ZM203.013 48.6273V32.4273H205.433V42.6473L209.873 32.4273H211.853V48.6273H209.413V38.2473L204.953 48.6273H203.013Z" fill="#2D2D2D"/>
</svg>
