<svg width="78" height="26" viewBox="0 0 78 26" fill="none" xmlns="http://www.w3.org/2000/svg">
<g clip-path="url(#clip0_801_1078)">
<path d="M29.4585 12.1944L29.5871 4.75262H30.9928L32.0493 9.90675L33.1518 4.75262H34.5116L34.6494 12.1944H33.6388L33.5285 7.02191L32.472 12.1944H31.6543L30.5794 7.00353L30.4783 12.1944H29.4585Z" fill="#2D2C2C"/>
<path d="M35.3716 12.1944L36.8599 4.75262H38.3115L39.7999 12.1944H38.5412L38.2472 10.4764H36.9518L36.6486 12.1944H35.3716ZM37.0896 9.61275H38.1002L37.5949 6.48904L37.0896 9.61275Z" fill="#2D2C2C"/>
<path d="M42.5513 12.2955C42.0061 12.2955 41.5774 12.1883 41.265 11.9739C40.9588 11.7595 40.7444 11.4686 40.6219 11.1011C40.4994 10.7275 40.4382 10.2987 40.4382 9.81486V7.15971C40.4382 6.65134 40.4994 6.21034 40.6219 5.83672C40.7444 5.4631 40.9588 5.17523 41.265 4.97311C41.5774 4.77098 42.0061 4.66992 42.5513 4.66992C43.0657 4.66992 43.4669 4.75873 43.7548 4.93636C44.0488 5.10785 44.257 5.35591 44.3795 5.68054C44.502 6.00516 44.5633 6.38184 44.5633 6.81059V7.43533H43.2587V6.79221C43.2587 6.58396 43.2464 6.39409 43.2219 6.22259C43.2036 6.05109 43.1454 5.91635 43.0474 5.81835C42.9555 5.71422 42.7932 5.66216 42.5604 5.66216C42.3277 5.66216 42.1562 5.71729 42.0459 5.82753C41.9418 5.93166 41.8744 6.07559 41.8438 6.25934C41.8132 6.43696 41.7979 6.63909 41.7979 6.86571V10.0997C41.7979 10.3692 41.8193 10.5927 41.8622 10.7704C41.9051 10.9419 41.9816 11.0735 42.0919 11.1654C42.2083 11.2512 42.3644 11.294 42.5604 11.294C42.7871 11.294 42.9463 11.242 43.0382 11.1378C43.1362 11.0276 43.1974 10.8837 43.2219 10.706C43.2464 10.5284 43.2587 10.3294 43.2587 10.1089V9.43818H44.5633V10.0354C44.5633 10.4764 44.5051 10.8684 44.3887 11.2113C44.2724 11.5482 44.0672 11.8147 43.7732 12.0107C43.4853 12.2005 43.078 12.2955 42.5513 12.2955Z" fill="#2D2C2C"/>
<path d="M46.2542 12.1944V5.75404H45.0691V4.75262H48.7808V5.75404H47.614V12.1944H46.2542Z" fill="#2D2C2C"/>
<path d="M49.4578 12.1944V4.75262H52.5815V5.70811H50.8175V7.84877H52.2048V8.79507H50.8175V11.2573H52.5999V12.1944H49.4578Z" fill="#2D2C2C"/>
<path d="M53.3875 12.1944V4.75262H55.5741C56.0212 4.75262 56.3825 4.83531 56.6581 5.00068C56.9399 5.16605 57.1452 5.40799 57.2738 5.72648C57.4085 6.03885 57.4758 6.4186 57.4758 6.86572C57.4758 7.34959 57.3931 7.74158 57.2278 8.04171C57.0624 8.3357 56.8296 8.55008 56.5295 8.68482C56.2355 8.81957 55.8865 8.88695 55.4823 8.88695H54.7472V12.1944H53.3875ZM54.7472 7.93146H55.2617C55.5067 7.93146 55.6965 7.89777 55.8313 7.8304C55.9721 7.7569 56.0671 7.64359 56.1161 7.49046C56.1712 7.33121 56.1988 7.1199 56.1988 6.85653C56.1988 6.58704 56.1773 6.3696 56.1345 6.20423C56.0977 6.03273 56.0121 5.90717 55.8773 5.82754C55.7487 5.74792 55.5434 5.70811 55.2617 5.70811H54.7472V7.93146Z" fill="#2D2C2C"/>
<path d="M60.2352 12.2955C59.6901 12.2955 59.2613 12.1883 58.949 11.9739C58.6427 11.7595 58.4283 11.4686 58.3058 11.1011C58.1833 10.7275 58.1221 10.2987 58.1221 9.81486V7.15971C58.1221 6.65134 58.1833 6.21034 58.3058 5.83672C58.4283 5.4631 58.6427 5.17523 58.949 4.97311C59.2613 4.77098 59.6901 4.66992 60.2352 4.66992C60.7497 4.66992 61.1509 4.75873 61.4387 4.93636C61.7327 5.10785 61.941 5.35591 62.0635 5.68054C62.186 6.00516 62.2472 6.38184 62.2472 6.81059V7.43533H60.9426V6.79221C60.9426 6.58396 60.9304 6.39409 60.9059 6.22259C60.8875 6.05109 60.8293 5.91635 60.7313 5.81835C60.6394 5.71422 60.4771 5.66216 60.2444 5.66216C60.0116 5.66216 59.8401 5.71729 59.7299 5.82753C59.6258 5.93166 59.5584 6.07559 59.5278 6.25934C59.4971 6.43696 59.4818 6.63909 59.4818 6.86571V10.0997C59.4818 10.3692 59.5033 10.5927 59.5461 10.7704C59.589 10.9419 59.6656 11.0735 59.7758 11.1654C59.8922 11.2512 60.0484 11.294 60.2444 11.294C60.471 11.294 60.6303 11.242 60.7221 11.1378C60.8201 11.0276 60.8814 10.8837 60.9059 10.706C60.9304 10.5284 60.9426 10.3294 60.9426 10.1089V9.43818H62.2472V10.0354C62.2472 10.4764 62.189 10.8684 62.0727 11.2113C61.9563 11.5482 61.7511 11.8147 61.4571 12.0107C61.1692 12.2005 60.7619 12.2955 60.2352 12.2955Z" fill="#2D2C2C"/>
<path d="M63.2124 12.1944V4.75262H64.5629V7.87633H64.8385L66.0421 4.75262H67.3926L65.9778 8.2622L67.5029 12.1944H66.1248L64.8385 8.76751H64.5629V12.1944H63.2124Z" fill="#2D2C2C"/>
<path d="M67.7876 12.1944L69.276 4.75262H70.7276L72.216 12.1944H70.9573L70.6633 10.4764H69.3679L69.0647 12.1944H67.7876ZM69.5057 9.61275H70.5163L70.011 6.48904L69.5057 9.61275Z" fill="#2D2C2C"/>
<path d="M72.5051 12.1944L73.9935 8.86857C73.6872 8.70932 73.4392 8.46433 73.2493 8.13358C73.0594 7.79671 72.9645 7.38328 72.9645 6.89328C72.9645 6.40329 73.0533 6.0021 73.2309 5.68973C73.4085 5.37124 73.675 5.13543 74.0302 4.9823C74.3916 4.82918 74.8479 4.75262 75.3991 4.75262H77.1172V12.1944H75.7666V9.18094H75.3348C75.3226 9.18094 75.295 9.18094 75.2521 9.18094C75.2093 9.18094 75.1817 9.18094 75.1694 9.18094L73.9843 12.1944H72.5051ZM75.4634 8.22545H75.7666V5.69892H75.4359C75.0378 5.69892 74.7376 5.79692 74.5355 5.99292C74.3334 6.18279 74.2323 6.48291 74.2323 6.89328C74.2323 7.3159 74.3211 7.64359 74.4988 7.87633C74.6825 8.10908 75.0041 8.22545 75.4634 8.22545Z" fill="#2D2C2C"/>
<path d="M29.4939 20.8133V13.3715H32.6452V14.3729H30.8445V20.8133H29.4939Z" fill="#2D2C2C"/>
<path d="M33.3875 20.8133V13.3715H35.5741C36.0212 13.3715 36.3825 13.4542 36.6581 13.6195C36.9399 13.7849 37.1451 14.0268 37.2738 14.3453C37.4085 14.6577 37.4758 15.0375 37.4758 15.4846C37.4758 15.9684 37.3931 16.3604 37.2277 16.6606C37.0624 16.9546 36.8296 17.1689 36.5295 17.3037C36.2355 17.4384 35.8865 17.5058 35.4822 17.5058H34.7472V20.8133H33.3875ZM34.7472 16.5503H35.2617C35.5067 16.5503 35.6965 16.5166 35.8312 16.4493C35.9721 16.3758 36.0671 16.2624 36.1161 16.1093C36.1712 15.9501 36.1987 15.7388 36.1987 15.4754C36.1987 15.2059 36.1773 14.9885 36.1344 14.8231C36.0977 14.6516 36.012 14.526 35.8773 14.4464C35.7487 14.3668 35.5435 14.327 35.2617 14.327H34.7472V16.5503Z" fill="#2D2C2C"/>
<path d="M37.7212 20.8133L39.2096 13.3715H40.6612L42.1496 20.8133H40.8909L40.5969 19.0952H39.3015L38.9983 20.8133H37.7212ZM39.4393 18.2316H40.4499L39.9446 15.1079L39.4393 18.2316Z" fill="#2D2C2C"/>
<path d="M42.8979 20.8133V13.3715H44.7262C45.0569 13.3715 45.3541 13.4021 45.6175 13.4633C45.887 13.5246 46.1165 13.6287 46.3064 13.7757C46.5024 13.9166 46.6525 14.1095 46.7566 14.3545C46.8607 14.5995 46.9128 14.9088 46.9128 15.2825C46.9128 15.5826 46.8699 15.8398 46.7842 16.0542C46.7045 16.2686 46.5851 16.4401 46.4258 16.5687C46.2666 16.6912 46.0676 16.7739 45.8288 16.8167C46.1228 16.8657 46.3647 16.9699 46.5546 17.1291C46.7506 17.2822 46.8945 17.4844 46.9864 17.7355C47.0844 17.9866 47.1334 18.2898 47.1334 18.645C47.1334 19.0003 47.0873 19.3157 46.9955 19.5913C46.9097 19.8608 46.778 20.0875 46.6004 20.2712C46.4289 20.4488 46.2116 20.5836 45.9482 20.6755C45.691 20.7673 45.3878 20.8133 45.0386 20.8133H42.8979ZM44.2576 19.8578H44.7721C45.1825 19.8578 45.4612 19.7598 45.6082 19.5638C45.7552 19.3617 45.8288 19.0523 45.8288 18.6359C45.8288 18.3357 45.7919 18.0938 45.7184 17.91C45.651 17.7202 45.5348 17.5793 45.3694 17.4874C45.2101 17.3956 44.9957 17.3496 44.7262 17.3496H44.2576V19.8578ZM44.2576 16.4125H44.717C44.9865 16.4125 45.1948 16.3727 45.3418 16.2931C45.4888 16.2134 45.5899 16.0909 45.645 15.9256C45.7063 15.7602 45.7369 15.5519 45.7369 15.3008C45.7369 15.0375 45.6909 14.8353 45.599 14.6945C45.5132 14.5475 45.3815 14.4495 45.2039 14.4005C45.0263 14.3453 44.7998 14.3178 44.5242 14.3178H44.2576V16.4125Z" fill="#2D2C2C"/>
<path d="M48.0303 20.8133V13.3715H49.142V18.0662L51.1816 13.3715H52.0912V20.8133H50.9703V16.045L48.9215 20.8133H48.0303Z" fill="#2D2C2C"/>
<path d="M53.2336 20.8133V13.3715H55.4202C55.8673 13.3715 56.2287 13.4542 56.5043 13.6195C56.7861 13.7849 56.9913 14.0268 57.1199 14.3453C57.2546 14.6577 57.322 15.0375 57.322 15.4846C57.322 15.9684 57.2393 16.3604 57.0739 16.6606C56.9086 16.9546 56.6758 17.1689 56.3757 17.3037C56.0817 17.4384 55.7326 17.5058 55.3283 17.5058H54.5933V20.8133H53.2336ZM54.5933 16.5503H55.1078C55.3528 16.5503 55.5427 16.5166 55.6775 16.4493C55.8183 16.3758 55.9133 16.2624 55.9623 16.1093C56.0174 15.9501 56.0449 15.7388 56.0449 15.4754C56.0449 15.2059 56.0235 14.9885 55.9806 14.8231C55.9439 14.6516 55.8581 14.526 55.7234 14.4464C55.5948 14.3668 55.3896 14.327 55.1078 14.327H54.5933V16.5503Z" fill="#2D2C2C"/>
<path d="M60.0999 20.9143C59.5732 20.9143 59.1536 20.8163 58.8413 20.6203C58.5289 20.4243 58.3053 20.1426 58.1706 19.7751C58.0358 19.4076 57.9685 18.9727 57.9685 18.4705V15.6867C57.9685 15.1845 58.0358 14.7557 58.1706 14.4005C58.3053 14.0391 58.5289 13.7635 58.8413 13.5736C59.1536 13.3837 59.5732 13.2888 60.0999 13.2888C60.6389 13.2888 61.0616 13.3837 61.3678 13.5736C61.6802 13.7635 61.9037 14.0391 62.0385 14.4005C62.1794 14.7557 62.2498 15.1845 62.2498 15.6867V18.4797C62.2498 18.9758 62.1794 19.4076 62.0385 19.7751C61.9037 20.1365 61.6802 20.4182 61.3678 20.6203C61.0616 20.8163 60.6389 20.9143 60.0999 20.9143ZM60.0999 19.9129C60.3266 19.9129 60.4919 19.8639 60.5961 19.7659C60.7063 19.6679 60.7798 19.5332 60.8166 19.3617C60.8533 19.1902 60.8717 19.0033 60.8717 18.8012V15.3743C60.8717 15.1661 60.8533 14.9793 60.8166 14.8139C60.7798 14.6485 60.7063 14.5199 60.5961 14.428C60.4919 14.33 60.3266 14.281 60.0999 14.281C59.8856 14.281 59.7233 14.33 59.613 14.428C59.5028 14.5199 59.4293 14.6485 59.3925 14.8139C59.3558 14.9793 59.3374 15.1661 59.3374 15.3743V18.8012C59.3374 19.0033 59.3527 19.1902 59.3833 19.3617C59.4201 19.5332 59.4936 19.6679 59.6038 19.7659C59.7141 19.8639 59.8795 19.9129 60.0999 19.9129Z" fill="#2D2C2C"/>
<path d="M63.2556 20.8133V13.3715H65.0839C65.4146 13.3715 65.7117 13.4021 65.9751 13.4633C66.2446 13.5246 66.4743 13.6287 66.6641 13.7757C66.8601 13.9166 67.0102 14.1095 67.1143 14.3545C67.2184 14.5995 67.2705 14.9088 67.2705 15.2825C67.2705 15.5826 67.2276 15.8398 67.1419 16.0542C67.0622 16.2686 66.9428 16.4401 66.7836 16.5687C66.6243 16.6912 66.4253 16.7739 66.1864 16.8167C66.4804 16.8657 66.7223 16.9699 66.9122 17.1291C67.1082 17.2822 67.2521 17.4844 67.344 17.7355C67.442 17.9866 67.491 18.2898 67.491 18.645C67.491 19.0003 67.4451 19.3157 67.3532 19.5913C67.2674 19.8608 67.1357 20.0875 66.9581 20.2712C66.7866 20.4488 66.5692 20.5836 66.3058 20.6755C66.0486 20.7673 65.7454 20.8133 65.3963 20.8133H63.2556ZM64.6153 19.8578H65.1298C65.5402 19.8578 65.8189 19.7598 65.9659 19.5638C66.1129 19.3617 66.1864 19.0523 66.1864 18.6359C66.1864 18.3357 66.1496 18.0938 66.0761 17.91C66.0088 17.7202 65.8924 17.5793 65.727 17.4874C65.5678 17.3956 65.3534 17.3496 65.0839 17.3496H64.6153V19.8578ZM64.6153 16.4125H65.0747C65.3442 16.4125 65.5525 16.3727 65.6995 16.2931C65.8464 16.2134 65.9475 16.0909 66.0026 15.9256C66.0639 15.7602 66.0945 15.5519 66.0945 15.3008C66.0945 15.0375 66.0486 14.8353 65.9567 14.6945C65.8709 14.5475 65.7393 14.4495 65.5616 14.4005C65.384 14.3453 65.1574 14.3178 64.8818 14.3178H64.6153V16.4125Z" fill="#2D2C2C"/>
<path d="M68.3879 20.8133V13.3715H69.7384V16.4952H70.014L71.2176 13.3715H72.5681L71.1533 16.8811L72.6784 20.8133H71.3003L70.014 17.3864H69.7384V20.8133H68.3879Z" fill="#2D2C2C"/>
<path d="M73.3584 20.8133V13.3715H74.4701V18.0662L76.5097 13.3715H77.4192V20.8133H76.2983V16.045L74.2496 20.8133H73.3584Z" fill="#2D2C2C"/>
<path d="M29.5254 22.4101C29.5254 22.2474 29.6574 22.1154 29.8202 22.1154H77.267C77.4298 22.1154 77.5617 22.2474 77.5617 22.4101C77.5617 22.5729 77.4298 22.7049 77.267 22.7049H29.8202C29.6574 22.7049 29.5254 22.5729 29.5254 22.4101Z" fill="#2D2D2D"/>
<path d="M12.4644 25.1235V5.76007H14.4224V25.1235H12.4644Z" fill="#2D2D2D"/>
<path d="M23.3283 6.73902H12.4644V4.78107H23.3283V6.73902Z" fill="#2D2D2D"/>
<path d="M22.3491 8.64202C21.8084 8.64202 21.3701 8.20372 21.3701 7.66305V4.83606H23.3281V7.66305C23.3281 8.20372 22.8898 8.64202 22.3491 8.64202Z" fill="#2D2D2D"/>
<path d="M11.2456 24.0487C11.2456 23.4551 11.7268 22.9738 12.3204 22.9738H15.0516V25.1235H12.3204C11.7268 25.1235 11.2456 24.6423 11.2456 24.0487Z" fill="#2D2D2D"/>
<path d="M11.4852 4.69659C10.9446 4.69659 10.5063 4.25828 10.5063 3.71761V0.890625H12.4642V3.71761C12.4642 4.25828 12.0259 4.69659 11.4852 4.69659Z" fill="#2D2D2D"/>
<path d="M12.4643 0.876099H7.14955C3.30533 0.876099 0.188965 3.99246 0.188965 7.83668C0.188965 11.6809 3.30532 14.7973 7.14955 14.7973H12.4643V12.5795H7.14955C4.53015 12.5795 2.4067 10.4561 2.4067 7.83668C2.4067 5.21728 4.53015 3.09384 7.14955 3.09384H12.4643V0.876099Z" fill="#2D2D2D"/>
<path d="M13.4434 25.1235H19.7299C23.2019 25.1235 26.0165 22.3089 26.0165 18.837C26.0165 15.365 23.2019 12.5504 19.7299 12.5504H13.4434V14.7682H19.7299C21.9771 14.7682 23.7987 16.5898 23.7987 18.837C23.7987 21.0841 21.9771 22.9058 19.7299 22.9058H13.4434V25.1235Z" fill="#2D2D2D"/>
</g>
<defs>
<clipPath id="clip0_801_1078">
<rect width="78" height="26" fill="white"/>
</clipPath>
</defs>
</svg>
