<svg width="101" height="94" viewBox="0 0 101 94" fill="none" xmlns="http://www.w3.org/2000/svg">
<path fill-rule="evenodd" clip-rule="evenodd" d="M71.2951 54.2346C74.2023 49.1132 75.8545 43.2387 75.8545 36.993C75.8545 17.0895 59.0748 0.954468 38.376 0.954468C17.6772 0.954468 0.897461 17.0895 0.897461 36.993C0.897461 56.8966 17.6772 73.0316 38.376 73.0316C45.4831 73.0316 52.1282 71.1294 57.7906 67.8255C62.0679 71.7326 68.4292 77.3204 73.891 82.0837C76.8227 84.6405 79.4836 86.9497 81.4357 88.6439L81.4385 88.6463L81.4387 88.6465C83.2517 90.2199 84.4528 91.2623 84.6907 91.4788C85.7664 92.4577 86.8626 93.3699 88.2978 93.7725C89.7482 94.1793 91.2501 93.9908 92.9907 93.5663C94.5631 93.1828 96.233 92.2337 97.5727 91.0354C98.8977 89.8502 100.151 88.1937 100.496 86.2525C100.775 84.6814 100.747 83.2401 100.161 81.8321C99.5982 80.4812 98.6099 79.3816 97.4369 78.3136L97.4325 78.3096L71.2951 54.2346ZM69.0946 57.6446C66.9061 60.649 64.253 63.3176 61.2356 65.554C61.8832 66.1419 62.5712 66.7624 63.2906 67.4078L71.0903 59.4828L69.0946 57.6446ZM74.0318 62.1921L66.277 70.0716C69.5689 72.9933 73.203 76.1775 76.5192 79.0696C79.3378 81.5278 81.9379 83.7846 83.8927 85.4812L83.9006 85.4882C85.8213 87.1552 87.1171 88.2799 87.3821 88.5211C88.4514 89.4942 88.937 89.7979 89.3764 89.9212C89.8006 90.0402 90.4659 90.0643 92.041 89.6802C92.8562 89.4814 93.9548 88.9034 94.9051 88.0534C95.8702 87.1902 96.4285 86.2771 96.5575 85.5509C96.7523 84.4546 96.667 83.8461 96.4679 83.3677C96.2456 82.8339 95.7788 82.2117 94.7411 81.2673L94.7322 81.2592L77.98 65.8288L73.4348 70.447C72.66 71.2342 71.3696 71.2697 70.5527 70.5263C69.7358 69.7828 69.7016 68.5419 70.4764 67.7547L75.0385 63.1194L74.0318 62.1921ZM38.376 68.0058C20.5638 68.0058 6.12411 54.1209 6.12411 36.993C6.12411 19.8652 20.5638 5.98031 38.376 5.98031C56.1882 5.98031 70.6279 19.8652 70.6279 36.993C70.6279 54.1209 56.1882 68.0058 38.376 68.0058ZM38.3765 66.1925C55.1473 66.1925 68.7427 53.1194 68.7427 36.9929C68.7427 20.8664 55.1473 7.79333 38.3765 7.79333C21.6057 7.79333 8.01024 20.8664 8.01024 36.9929C8.01024 53.1194 21.6057 66.1925 38.3765 66.1925ZM20.5516 55.5043C15.3786 50.8964 12.1406 44.3083 12.1406 36.9929C12.1406 23.0599 23.8868 11.765 38.3765 11.765C52.8662 11.765 64.6124 23.0599 64.6124 36.9929C64.6124 44.3101 61.3728 50.8997 56.1975 55.5078V53.109V48.8901V46.7669C56.1975 45.7848 55.9432 44.8194 55.4594 43.9648C54.6244 42.4897 53.3306 41.3275 51.7747 40.655L51.3873 40.4875L51.3564 40.4741L51.325 40.4622L48.2622 39.298L48.1671 39.2619L48.068 39.2389L46.1732 38.7997C45.3496 38.6088 44.4853 38.8471 43.8759 39.4331L41.4275 41.7874L40.0081 43.1522L38.3798 44.718L36.7409 43.1421L35.3216 41.7773L32.8732 39.423C32.2638 38.837 31.3995 38.5987 30.5759 38.7896L28.6811 39.2288L28.582 39.2518L28.4869 39.2879L25.424 40.4521L25.3926 40.464L25.3618 40.4773L24.9743 40.6448C23.4184 41.3174 22.1247 42.4795 21.2897 43.9546C20.8059 44.8093 20.5516 45.7747 20.5516 46.7567V48.88V53.0989V55.5043ZM53.1975 53.109V57.8127C51.9307 58.6481 50.5838 59.3794 49.1702 59.9937L49.178 51.6259C49.1788 50.7975 48.5078 50.1253 47.6794 50.1246C46.851 50.1239 46.1788 50.7949 46.178 51.6233L46.1692 61.0894C43.7072 61.8247 41.09 62.2208 38.3765 62.2208C35.6795 62.2208 33.0775 61.8295 30.6286 61.1027V51.6244C30.6286 50.796 29.957 50.1244 29.1286 50.1244C28.3002 50.1244 27.6286 50.796 27.6286 51.6244V60.0136C26.1968 59.3946 24.8332 58.6556 23.5516 57.8101V53.0989V48.88V46.7567C23.5516 46.2926 23.6718 45.8364 23.9004 45.4325C24.4135 44.526 25.2086 43.8119 26.1647 43.3986L26.5213 43.2444L29.4576 42.1283L30.9892 41.7733L33.2422 43.9397L34.6616 45.3046L37.3715 47.9104L38.2748 48.779L38.3697 48.6803L38.4743 48.7891L39.3776 47.9205L42.0875 45.3147L43.5069 43.9499L45.7599 41.7834L47.2914 42.1385L50.2277 43.2545L50.5844 43.4087C51.5405 43.822 52.3355 44.5361 52.8487 45.4426C53.0773 45.8465 53.1975 46.3027 53.1975 46.7669V48.8901V53.109ZM49.1494 26.6321C49.1494 32.3543 44.3253 36.993 38.3744 36.993C32.4236 36.993 27.5995 32.3543 27.5995 26.6321C27.5995 20.9099 32.4236 16.2711 38.3744 16.2711C44.3253 16.2711 49.1494 20.9099 49.1494 26.6321ZM30.9608 26.6321C30.9608 30.5692 34.28 33.7609 38.3744 33.7609C42.4689 33.7609 45.7881 30.5692 45.7881 26.6321C45.7881 22.6949 42.4689 19.5033 38.3744 19.5033C34.28 19.5033 30.9608 22.6949 30.9608 26.6321Z" fill="#400002"/>
</svg>
