<svg width="93" height="95" viewBox="0 0 93 95" fill="none" xmlns="http://www.w3.org/2000/svg">
<path d="M58.4177 7.89514C59.0508 7.36075 59.9924 7.44469 60.5209 8.08264L63.4072 11.5667L68.1419 5.9038C68.6733 5.26824 69.6152 5.18855 70.2458 5.72581C70.8764 6.26306 70.9568 7.21381 70.4255 7.84937L64.544 14.884C64.2667 15.2156 63.8776 15.3959 63.4793 15.4162C63.0265 15.4403 62.5686 15.2568 62.2557 14.879L58.2285 10.0179C57.7 9.37991 57.7847 8.42954 58.4177 7.89514Z" fill="#400002"/>
<path fill-rule="evenodd" clip-rule="evenodd" d="M34.8208 39.6141C40.2928 39.6141 44.7287 35.1362 44.7287 29.6124C44.7287 24.0886 40.2928 19.6107 34.8208 19.6107C29.3489 19.6107 24.9129 24.0886 24.9129 29.6124C24.9129 35.1362 29.3489 39.6141 34.8208 39.6141ZM34.8208 36.494C31.0559 36.494 28.0038 33.413 28.0038 29.6124C28.0038 25.8118 31.0559 22.7308 34.8208 22.7308C38.5858 22.7308 41.6379 25.8118 41.6379 29.6124C41.6379 33.413 38.5858 36.494 34.8208 36.494Z" fill="#400002"/>
<path fill-rule="evenodd" clip-rule="evenodd" d="M62.744 39.614C62.744 55.1813 50.2426 67.8011 34.8213 67.8011C19.4 67.8011 6.89855 55.1813 6.89855 39.614C6.89855 24.0468 19.4 11.427 34.8213 11.427C50.2426 11.427 62.744 24.0468 62.744 39.614ZM27.8172 62.1743C30.0288 62.8732 32.3814 63.25 34.8213 63.25C37.2763 63.25 39.6431 62.8685 41.8666 62.1612L41.8741 53.737C41.8748 52.9086 42.547 52.2376 43.3754 52.2384C44.2038 52.2391 44.8748 52.9113 44.8741 53.7397L44.8677 60.9698C46.0835 60.3859 47.2415 59.6994 48.3309 58.9213V49.0049C48.3309 48.5834 48.2261 48.1686 48.0261 47.7976C47.5522 46.9187 46.8033 46.2195 45.8941 45.8069L45.6515 45.6968L42.9658 44.6251L41.6645 44.3085L35.0227 51.0131L34.8159 50.8082L34.619 51.0034L27.9772 44.2988L26.6759 44.6154L23.9901 45.6871L23.7476 45.7972C22.8384 46.2098 22.0895 46.909 21.6156 47.7879C21.4155 48.1588 21.3108 48.5737 21.3108 48.9952V58.9206C22.413 59.708 23.5856 60.4017 24.8172 60.99V53.7382C24.8172 52.9097 25.4888 52.2382 26.3172 52.2382C27.1456 52.2382 27.8172 52.9097 27.8172 53.7382V62.1743ZM58.2356 39.614C58.2356 46.1649 55.5955 52.0934 51.3309 56.3743V49.0049C51.3309 48.0864 51.1026 47.1822 50.6667 46.3738C49.8814 44.9174 48.6404 43.7587 47.1338 43.075L46.8279 42.9362L43.8809 41.7603L42.0992 41.3267C41.2473 41.1194 40.3491 41.3735 39.732 41.9964L34.8257 46.9492L29.9096 41.9867C29.2926 41.3638 28.3944 41.1097 27.5425 41.317L25.7607 41.7506L22.8138 42.9265L22.5079 43.0653C21.0012 43.749 19.7602 44.9077 18.975 46.364C18.539 47.1725 18.3108 48.0766 18.3108 48.9952V56.3734C14.0467 52.0925 11.407 46.1645 11.407 39.614C11.407 26.5603 21.8899 15.9781 34.8213 15.9781C47.7527 15.9781 58.2356 26.5603 58.2356 39.614Z" fill="#400002"/>
<path fill-rule="evenodd" clip-rule="evenodd" d="M74.4237 9.9396C74.4237 15.2808 69.8756 19.6106 64.2652 19.6106C63.8249 19.6106 63.3912 19.584 62.9657 19.5323C66.9452 25.2052 69.2838 32.1339 69.2838 39.6141C69.2838 45.6007 67.7858 51.2342 65.1475 56.1534L89.2704 79.4794L89.2752 79.484C90.3613 80.5221 91.2767 81.5923 91.7961 82.9021C92.3348 84.2605 92.3604 85.6472 92.1043 87.1603C91.7876 89.0318 90.6328 90.6413 89.3976 91.8011C88.1546 92.9683 86.5925 93.9057 85.101 94.2875C83.4908 94.6998 82.0553 94.8961 80.6572 94.4844C79.2841 94.08 78.2491 93.1689 77.2654 92.2292C77.0476 92.021 75.9472 91.0185 74.2849 89.5041L74.2821 89.5015C72.487 87.8661 70.0374 85.6344 67.3367 83.1617C62.3332 78.5808 56.5077 73.2089 52.5738 69.4382C47.3888 72.59 41.3147 74.403 34.8211 74.403C15.7879 74.403 0.358398 58.8274 0.358398 39.6141C0.358398 20.4007 15.7879 4.82518 34.8211 4.82518C41.9834 4.82518 48.6353 7.03074 54.1468 10.8057C54.1202 10.5204 54.1066 10.2315 54.1066 9.9396C54.1066 4.59843 58.6548 0.268555 64.2652 0.268555C69.8756 0.268555 74.4237 4.59843 74.4237 9.9396ZM60.6431 71.5469C63.6637 74.3611 66.9961 77.4263 70.038 80.2113C72.6247 82.5795 75.0124 84.7551 76.8094 86.3926L76.8172 86.3997L76.8204 86.4026C78.5898 88.0148 79.7843 89.1032 80.0288 89.3368C81.0174 90.2813 81.437 90.5441 81.7876 90.6473C82.1133 90.7432 82.6707 90.7809 84.1093 90.4125C84.8133 90.2323 85.7969 89.6955 86.6597 88.8853C87.5302 88.0679 88.0413 87.1968 88.1604 86.4934C88.3401 85.4315 88.2612 84.8395 88.0778 84.377C87.8759 83.8678 87.4536 83.276 86.5071 82.3718L86.4984 82.3635L71.2479 67.6168L67.1481 71.9898C66.3926 72.7956 65.1328 72.8302 64.3341 72.0672C63.5354 71.3042 63.5004 70.0324 64.2559 69.2266L68.3722 64.8361L67.6182 64.107L60.6431 71.5469ZM57.7239 68.8125L64.7425 61.3263L63.0023 59.6436C61.0245 62.474 58.6389 64.9932 55.9316 67.1141C56.4974 67.6535 57.0972 68.2218 57.7239 68.8125ZM64.2652 17.7885C63.1831 17.7885 62.1497 17.59 61.203 17.2293C59.7839 15.5267 58.206 13.9634 56.4923 12.5628C56.1869 11.7425 56.0206 10.8595 56.0206 9.9396C56.0206 5.60478 59.7119 2.09071 64.2652 2.09071C68.8185 2.09071 72.5097 5.60478 72.5097 9.9396C72.5097 14.2744 68.8185 17.7885 64.2652 17.7885ZM4.65229 39.6141C4.65229 56.4335 18.1593 70.0684 34.8211 70.0684C51.4829 70.0684 64.9899 56.4335 64.9899 39.6141C64.9899 22.7946 51.4829 9.15971 34.8211 9.15971C18.1593 9.15971 4.65229 22.7946 4.65229 39.6141Z" fill="#400002"/>
</svg>
