<svg width="247" height="311" viewBox="0 0 247 311" fill="none" xmlns="http://www.w3.org/2000/svg">
<path fill-rule="evenodd" clip-rule="evenodd" d="M68.0366 7.00104L67.3921 7.18997L66.7828 7.47247C54.7531 13.0497 37.0704 23.6435 23.0085 37.54C9.21094 51.1753 -3.01178 69.9651 0.838871 91.4351L0.98399 92.2442L1.27329 93.0137L36.8557 187.652L36.8623 187.669L36.869 187.687L72.8325 282.141L72.8396 282.16C80.6544 302.913 103.668 309.416 123.27 310.696C143.697 312.03 165.675 308.169 178.712 303.267C190.734 298.747 208.648 287.938 222.897 273.75C236.865 259.841 249.525 240.402 245.669 218.897L245.523 218.088L245.234 217.319L174.07 28.0446L173.781 27.2752L173.357 26.5709C162.094 7.85711 140.387 1.83175 120.953 0.705206C101.129 -0.443966 80.7561 3.27257 68.0366 7.00104ZM53.6976 181.299L18.4322 87.5045C16.5876 75.2134 23.4237 62.4362 35.6609 50.343C47.6533 38.4916 63.0904 29.1088 73.7453 24.0873C85.0777 20.8423 102.977 17.6933 119.912 18.675C137.208 19.6777 150.834 24.7689 157.533 35.2056L228.074 222.825C229.901 235.109 222.74 248.504 210.196 260.995C197.676 273.461 181.909 282.835 172.377 286.419C161.79 290.399 142.377 293.905 124.443 292.734C105.689 291.51 93.3784 285.641 89.681 275.807L89.6744 275.789L89.6677 275.772L53.7042 181.317L53.6976 181.299ZM80.7838 53.2385C85.8174 51.3459 88.3638 45.7312 86.4712 40.6976C84.5786 35.664 78.9639 33.1177 73.9303 35.0102C68.8967 36.9028 66.3503 42.5175 68.2429 47.5511C70.1355 52.5847 75.7502 55.1311 80.7838 53.2385Z" fill="#4F131B" fill-opacity="0.1"/>
</svg>
