<svg width="239" height="239" viewBox="0 0 239 239" fill="none" xmlns="http://www.w3.org/2000/svg">
<path fill-rule="evenodd" clip-rule="evenodd" d="M197.734 208.983C247.17 165.625 252.097 90.4 208.739 40.9641C165.38 -8.47177 90.1555 -13.3986 40.7196 29.9599C-8.71628 73.3183 -13.6431 148.543 29.7153 197.979C73.0738 247.415 148.298 252.341 197.734 208.983ZM186.857 196.582C144.271 233.933 79.4681 229.689 42.1169 187.102C4.76566 144.515 9.00985 79.7126 51.5966 42.3614C94.1833 5.01016 158.986 9.25435 196.337 51.8411C233.688 94.4278 229.444 159.23 186.857 196.582ZM69.6702 65.3987C73.6663 61.8939 74.0645 55.8133 70.5597 51.8173C67.055 47.8213 60.9744 47.4231 56.9784 50.9278C52.9824 54.4326 52.5841 60.5132 56.0889 64.5092C59.5936 68.5052 65.6742 68.9034 69.6702 65.3987Z" fill="#4F131B" fill-opacity="0.1"/>
</svg>
