<svg width="120" height="94" viewBox="0 0 120 94" fill="none" xmlns="http://www.w3.org/2000/svg">
<path fill-rule="evenodd" clip-rule="evenodd" d="M22.6655 45.2768C34.8975 45.2768 44.8135 35.301 44.8135 22.9953C44.8135 10.6895 34.8975 0.713745 22.6655 0.713745C10.4336 0.713745 0.517578 10.6895 0.517578 22.9953C0.517578 35.301 10.4336 45.2768 22.6655 45.2768ZM22.6655 40.0601C13.2974 40.0601 5.70301 32.4199 5.70301 22.9953C5.70301 13.5706 13.2974 5.93045 22.6655 5.93045C32.0337 5.93045 39.6281 13.5706 39.6281 22.9953C39.6281 32.4199 32.0337 40.0601 22.6655 40.0601ZM22.4546 11.8815C21.35 11.8815 20.4546 12.7769 20.4546 13.8815V25.2526C20.4546 25.8577 20.7233 26.4001 21.148 26.7669C21.3916 27.2514 21.8303 27.6358 22.3935 27.7942L28.9144 29.6286C29.9777 29.9277 31.0821 29.3082 31.3813 28.2449L31.4957 27.8382C31.7948 26.7749 31.1753 25.6704 30.112 25.3713L24.8772 23.8987V13.8815C24.8772 12.7769 23.9817 11.8815 22.8772 11.8815H22.4546ZM50.5951 84.4957C50.5951 89.6512 46.4408 93.8307 41.3161 93.8307C36.1915 93.8307 32.0371 89.6512 32.0371 84.4957C32.0371 82.0505 32.9716 79.825 34.5008 78.1607H20.3301C19.2255 78.1607 18.3301 77.2653 18.3301 76.1607V72.9905C18.3301 71.8859 19.2255 70.9905 20.3301 70.9905H117.908C119.013 70.9905 119.908 71.8859 119.908 72.9905V76.1607C119.908 77.2653 119.013 78.1607 117.908 78.1607H103.059C104.588 79.825 105.523 82.0505 105.523 84.4957C105.523 89.6512 101.369 93.8307 96.2439 93.8307C91.1192 93.8307 86.9648 89.6512 86.9648 84.4957C86.9648 82.0505 87.8993 79.825 89.4285 78.1607H48.1315C49.6607 79.825 50.5951 82.0505 50.5951 84.4957ZM36.738 84.4957C36.738 87.0394 38.7877 89.1014 41.3161 89.1014C43.8446 89.1014 45.8943 87.0394 45.8943 84.4957C45.8943 81.952 43.8446 79.8899 41.3161 79.8899C38.7877 79.8899 36.738 81.952 36.738 84.4957ZM91.6657 84.4957C91.6657 87.0394 93.7154 89.1014 96.2439 89.1014C98.7723 89.1014 100.822 87.0394 100.822 84.4957C100.822 81.952 98.7723 79.8899 96.2439 79.8899C93.7154 79.8899 91.6657 81.952 91.6657 84.4957ZM81.2996 25.4953C80.8988 25.4953 80.5218 25.6855 80.2835 26.0078C80.1228 26.2252 80.0361 26.4884 80.0361 26.7588V59.4334C80.0361 62.4709 82.4986 64.9334 85.5361 64.9334H106.952C109.989 64.9334 112.452 62.4709 112.452 59.4334V47.109C112.452 46.7474 112.407 46.3871 112.32 46.0363C112.268 45.8279 112.2 45.6236 112.119 45.425L111.807 44.667C111.686 44.3741 111.54 44.0921 111.371 43.8242L110.424 42.325L110.403 42.2916L110.383 42.2575L109.31 40.4327L107.629 37.8074L106.039 35.6871L105.991 35.6227L105.947 35.5553L104.081 32.7024L104.08 32.7L102.517 30.3029L101.046 28.5517C100.71 28.1522 100.319 27.8024 99.885 27.513L98.6156 26.6667C98.1282 26.3418 97.592 26.0968 97.0274 25.941L96.1295 25.6934C95.6531 25.5619 95.1611 25.4953 94.6669 25.4953H81.2996ZM76.2626 23.036C77.4436 21.4381 79.3127 20.4953 81.2996 20.4953H94.6669C95.6104 20.4953 96.5497 20.6225 97.4592 20.8734L98.3571 21.1211C99.4351 21.4185 100.459 21.8862 101.389 22.5065L102.659 23.3528C103.487 23.9053 104.233 24.573 104.874 25.3358L106.442 27.2027L106.54 27.3184L106.622 27.445L108.266 29.9662L108.268 29.9687L110.088 32.7516L111.685 34.8816L111.741 34.9558L111.791 35.034L113.546 37.7771L113.572 37.8166L113.595 37.8572L114.673 39.6885L115.598 41.1542C115.921 41.6656 116.2 42.204 116.43 42.7633L116.742 43.5212C116.916 43.9444 117.059 44.3797 117.17 44.8236C117.357 45.571 117.452 46.3385 117.452 47.109V59.4334C117.452 65.2324 112.751 69.9334 106.952 69.9334H85.5361C79.7371 69.9334 75.0361 65.2324 75.0361 59.4334V26.7588C75.0361 25.4186 75.466 24.1137 76.2626 23.036ZM86.8262 43.284V31.2987H93.03L94.0496 31.5188L95.1113 32.0726L95.8883 32.7963L96.5383 33.5762L96.5395 33.5776L97.3449 34.5414L97.3777 34.5806L97.413 34.6175L98.0828 35.3162L98.784 36.1734L99.2392 36.779L99.2548 36.7997L99.271 36.8198L99.7475 37.4101L100.011 37.9106L100.051 37.9874L100.1 38.059L102.185 41.1065L102.202 41.1302L102.219 41.1533L103.581 42.989L86.8262 43.284ZM86.5625 28.2987C85.8747 28.2987 85.2173 28.582 84.7451 29.082L84.5088 29.3322C84.0704 29.7962 83.8262 30.4105 83.8262 31.0489V43.7929C83.8262 45.1908 84.9725 46.3171 86.3702 46.2925L104.605 45.9714C106.639 45.9356 107.781 43.6157 106.569 41.9822L104.645 39.3889L102.625 36.4367L102.38 35.9697C102.304 35.8261 102.215 35.6901 102.113 35.5638L101.622 34.9556L101.163 34.3461L101.145 34.3216L101.126 34.2978L100.368 33.3711L100.33 33.3255L100.289 33.2829L99.6141 32.5784L98.8428 31.6554L98.8416 31.6539L98.1322 30.8028L98.0716 30.7301L98.0023 30.6656L97.1066 29.8313C96.9422 29.6782 96.758 29.5479 96.5588 29.444L95.3773 28.8277C95.1788 28.7242 94.9673 28.6478 94.7485 28.6006L93.6109 28.355C93.4375 28.3176 93.2607 28.2987 93.0834 28.2987H86.5625ZM53.0254 21.7628V24.7828C53.0254 24.9958 53.0103 25.2084 52.9802 25.4192L52.6246 27.9082L52.2731 30.7201C52.2364 31.0141 52.1707 31.3038 52.077 31.585L51.382 33.6697L51.3405 33.7942L51.2862 33.9136L50.0237 36.6913L50.0045 36.7334L49.9838 36.7748L48.9738 38.7949L48.9207 38.9012L48.8577 39.0019L47.6802 40.8858C47.5528 41.0897 47.4092 41.2831 47.2508 41.4641L45.589 43.3634L45.5058 43.4585L45.4133 43.5447L43.5195 45.3123L43.4418 45.3848L43.3583 45.4505L41.5907 46.8393L41.5281 46.8885L41.4624 46.9336L39.4423 48.3224L39.3398 48.3929L39.2308 48.4529L36.7155 49.8363L36.7057 49.8417L33.1899 51.7961L33.1604 51.7431L29.7437 53.1739C29.4334 53.3038 29.1094 53.3986 28.778 53.4563L24.1971 54.2545C23.942 54.299 23.6835 54.3213 23.4246 54.3213H21.3495H20.8301V63.6663L20.8882 63.8441H68.0894H68.1271V21.7628H53.0254ZM31.4795 47.0263L34.2862 45.4661L34.2961 45.4606L36.7122 44.1318L38.5642 42.8585L40.1856 41.5845L41.9094 39.9757L43.4615 38.2018L44.5548 36.4526L45.491 34.5802L46.6801 31.9641L47.3179 30.0508L47.6659 27.2663L47.6687 27.2445L47.6718 27.2228L48.0254 24.7473V20.7038C48.0254 18.5273 49.7899 16.7628 51.9664 16.7628H69.0372C70.6827 16.7628 72.168 17.749 72.8066 19.2656C73.0181 19.768 73.1271 20.3076 73.1271 20.8527V21.6002V64.5225C73.1271 65.047 73.0354 65.5675 72.8562 66.0604L72.7951 66.2282C72.6422 66.6487 72.4194 67.0404 72.1361 67.3866C71.3814 68.3091 70.2524 68.8441 69.0605 68.8441H68.0894H20.4711C19.536 68.8441 18.625 68.5479 17.8687 67.9979C17.1156 67.4503 16.5544 66.679 16.2652 65.7939L16.0527 65.144C15.9052 64.6926 15.8301 64.2208 15.8301 63.746V53.8213C15.8301 51.3361 17.8448 49.3213 20.3301 49.3213H21.3495H23.3814L27.8643 48.5402L31.4795 47.0263Z" fill="#4F131B"/>
</svg>
