<svg width="40" height="40" viewBox="0 0 40 40" fill="none" xmlns="http://www.w3.org/2000/svg">
<rect x="0.189453" y="0.276367" width="39" height="39" rx="19.5" fill="#2D2D2D"/>
<path d="M27.1163 12.3389C25.1407 10.3701 22.5065 9.27637 19.726 9.27637C13.9455 9.27637 9.26262 13.943 9.26262 19.7035C9.26262 21.5264 9.77482 23.3493 10.6529 24.8805L9.18945 30.2764L14.7504 28.818C16.287 29.6201 17.9699 30.0576 19.726 30.0576C25.5065 30.0576 30.1895 25.391 30.1895 19.6305C30.1163 16.9326 29.0919 14.3076 27.1163 12.3389ZM24.7748 23.4222C24.5553 24.0055 23.5309 24.5889 23.0187 24.6618C22.5797 24.7347 21.9943 24.7347 21.409 24.5889C21.0431 24.443 20.5309 24.2972 19.9456 24.0055C17.3114 22.9118 15.6285 20.2868 15.4821 20.068C15.3358 19.9222 14.3846 18.6826 14.3846 17.3701C14.3846 16.0576 15.0431 15.4743 15.2626 15.1826C15.4821 14.8909 15.7748 14.8909 15.9943 14.8909C16.1407 14.8909 16.3602 14.8909 16.5065 14.8909C16.6529 14.8909 16.8724 14.818 17.0919 15.3285C17.3114 15.8389 17.8236 17.1514 17.8968 17.2243C17.9699 17.3701 17.9699 17.516 17.8968 17.6618C17.8236 17.8076 17.7504 17.9534 17.6041 18.0993C17.4577 18.2451 17.3114 18.4639 17.2382 18.5368C17.0919 18.6826 16.9455 18.8284 17.0919 19.0472C17.2382 19.3389 17.7504 20.1409 18.5553 20.8701C19.5797 21.7451 20.3846 22.0368 20.6773 22.1826C20.9699 22.3285 21.1163 22.2555 21.2626 22.1097C21.409 21.9639 21.9212 21.3805 22.0675 21.0889C22.2138 20.7972 22.4334 20.8701 22.6529 20.943C22.8724 21.016 24.1895 21.6722 24.409 21.818C24.7016 21.9639 24.848 22.0368 24.9212 22.1097C24.9943 22.3284 24.9943 22.8389 24.7748 23.4222Z" fill="white"/>
</svg>
